<?xml version="1.0" encoding="UTF-8" standalone="no"?>
<!DOCTYPE svg PUBLIC "-//W3C//DTD SVG 1.1//EN"
 "http://www.w3.org/Graphics/SVG/1.1/DTD/svg11.dtd">
<!-- Generated by graphviz version 14.1.2 (0)
 -->
<!-- Title: deps Pages: 1 -->
<svg width="1149pt" height="2108pt"
 viewBox="0.00 0.00 1149.00 2108.00" xmlns="http://www.w3.org/2000/svg" xmlns:xlink="http://www.w3.org/1999/xlink">
<g id="graph0" class="graph" transform="scale(1 1) rotate(0) translate(4 2104.25)">
<title>deps</title>
<!-- apps/greeter -->
<g id="node1" class="node">
<title>apps/greeter</title>
<path fill="#585b70" stroke="#585b70" d="M788.62,-1986C788.62,-1986 726.12,-1986 726.12,-1986 720.12,-1986 714.12,-1980 714.12,-1974 714.12,-1974 714.12,-1962 714.12,-1962 714.12,-1956 720.12,-1950 726.12,-1950 726.12,-1950 788.62,-1950 788.62,-1950 794.62,-1950 800.62,-1956 800.62,-1962 800.62,-1962 800.62,-1974 800.62,-1974 800.62,-1980 794.62,-1986 788.62,-1986"/>
<text xml:space="preserve" text-anchor="middle" x="757.38" y="-1964.3" font-family="Helvetica,sans-Serif" font-size="11.00" fill="#cdd6f4">apps/greeter</text>
</g>
<!-- lib/core -->
<g id="node2" class="node">
<title>lib/core</title>
<path fill="#313244" stroke="#585b70" d="M1110.88,-1542C1110.88,-1542 1078.38,-1542 1078.38,-1542 1072.38,-1542 1066.38,-1536 1066.38,-1530 1066.38,-1530 1066.38,-1518 1066.38,-1518 1066.38,-1512 1072.38,-1506 1078.38,-1506 1078.38,-1506 1110.88,-1506 1110.88,-1506 1116.88,-1506 1122.88,-1512 1122.88,-1518 1122.88,-1518 1122.88,-1530 1122.88,-1530 1122.88,-1536 1116.88,-1542 1110.88,-1542"/>
<text xml:space="preserve" text-anchor="middle" x="1094.62" y="-1520.3" font-family="Helvetica,sans-Serif" font-size="11.00" fill="#cdd6f4">lib/core</text>
</g>
<!-- apps/greeter&#45;&gt;lib/core -->
<g id="edge1" class="edge">
<title>apps/greeter&#45;&gt;lib/core</title>
<path fill="none" stroke="#7f849c" d="M800.92,-1968.89C852.71,-1967.9 940.67,-1959.39 1000.75,-1917 1060.81,-1874.63 1084.79,-1638 1091.5,-1553.77"/>
<polygon fill="#7f849c" stroke="#7f849c" points="1094.98,-1554.24 1092.25,-1544 1088,-1553.7 1094.98,-1554.24"/>
<text xml:space="preserve" text-anchor="middle" x="944" y="-1962.57" font-family="Helvetica,sans-Serif" font-size="9.00" fill="#a6adc8">1</text>
</g>
<!-- widget/greeter -->
<g id="node3" class="node">
<title>widget/greeter</title>
<path fill="#45475a" stroke="#585b70" d="M980.5,-2023C980.5,-2023 907.5,-2023 907.5,-2023 901.5,-2023 895.5,-2017 895.5,-2011 895.5,-2011 895.5,-1999 895.5,-1999 895.5,-1993 901.5,-1987 907.5,-1987 907.5,-1987 980.5,-1987 980.5,-1987 986.5,-1987 992.5,-1993 992.5,-1999 992.5,-1999 992.5,-2011 992.5,-2011 992.5,-2017 986.5,-2023 980.5,-2023"/>
<text xml:space="preserve" text-anchor="middle" x="944" y="-2001.3" font-family="Helvetica,sans-Serif" font-size="11.00" fill="#cdd6f4">widget/greeter</text>
</g>
<!-- apps/greeter&#45;&gt;widget/greeter -->
<g id="edge2" class="edge">
<title>apps/greeter&#45;&gt;widget/greeter</title>
<path fill="none" stroke="#7f849c" d="M800.73,-1976.49C825.53,-1981.46 857.2,-1987.81 884.37,-1993.25"/>
<polygon fill="#7f849c" stroke="#7f849c" points="883.34,-1996.61 893.83,-1995.15 884.71,-1989.75 883.34,-1996.61"/>
<text xml:space="preserve" text-anchor="middle" x="863.25" y="-1992.51" font-family="Helvetica,sans-Serif" font-size="9.00" fill="#a6adc8">1</text>
</g>
<!-- widget/greeter&#45;&gt;lib/core -->
<g id="edge40" class="edge">
<title>widget/greeter&#45;&gt;lib/core</title>
<path fill="none" stroke="#7f849c" d="M992.9,-1996.34C1007.08,-1991.47 1021.32,-1983.86 1030.75,-1972 1082.49,-1906.88 1091.65,-1642.89 1093.28,-1553.64"/>
<polygon fill="#7f849c" stroke="#7f849c" points="1096.77,-1553.82 1093.43,-1543.76 1089.77,-1553.71 1096.77,-1553.82"/>
<text xml:space="preserve" text-anchor="middle" x="1024.75" y="-1984.92" font-family="Helvetica,sans-Serif" font-size="9.00" fill="#a6adc8">1</text>
</g>
<!-- apps/share&#45;picker -->
<g id="node4" class="node">
<title>apps/share&#45;picker</title>
<path fill="#585b70" stroke="#585b70" d="M988.75,-1875C988.75,-1875 899.25,-1875 899.25,-1875 893.25,-1875 887.25,-1869 887.25,-1863 887.25,-1863 887.25,-1851 887.25,-1851 887.25,-1845 893.25,-1839 899.25,-1839 899.25,-1839 988.75,-1839 988.75,-1839 994.75,-1839 1000.75,-1845 1000.75,-1851 1000.75,-1851 1000.75,-1863 1000.75,-1863 1000.75,-1869 994.75,-1875 988.75,-1875"/>
<text xml:space="preserve" text-anchor="middle" x="944" y="-1853.3" font-family="Helvetica,sans-Serif" font-size="11.00" fill="#cdd6f4">apps/share&#45;picker</text>
</g>
<!-- apps/share&#45;picker&#45;&gt;lib/core -->
<g id="edge3" class="edge">
<title>apps/share&#45;picker&#45;&gt;lib/core</title>
<path fill="none" stroke="#7f849c" stroke-width="3.3" d="M985.64,-1838.65C991.28,-1834.77 996.57,-1830.23 1000.75,-1825 1065.82,-1743.62 1085.48,-1616.64 1091.28,-1557.02"/>
<polygon fill="#7f849c" stroke="#7f849c" stroke-width="3.3" points="1094.74,-1557.65 1092.11,-1547.38 1087.76,-1557.04 1094.74,-1557.65"/>
<text xml:space="preserve" text-anchor="middle" x="1024.75" y="-1800.02" font-family="Helvetica,sans-Serif" font-size="9.00" fill="#a6adc8">5</text>
</g>
<!-- apps/shell -->
<g id="node5" class="node">
<title>apps/shell</title>
<path fill="#585b70" stroke="#585b70" d="M59.5,-691C59.5,-691 12,-691 12,-691 6,-691 0,-685 0,-679 0,-679 0,-667 0,-667 0,-661 6,-655 12,-655 12,-655 59.5,-655 59.5,-655 65.5,-655 71.5,-661 71.5,-667 71.5,-667 71.5,-679 71.5,-679 71.5,-685 65.5,-691 59.5,-691"/>
<text xml:space="preserve" text-anchor="middle" x="35.75" y="-669.3" font-family="Helvetica,sans-Serif" font-size="11.00" fill="#cdd6f4">apps/shell</text>
</g>
<!-- apps/shell&#45;&gt;lib/core -->
<g id="edge4" class="edge">
<title>apps/shell&#45;&gt;lib/core</title>
<path fill="none" stroke="#7f849c" stroke-width="2.6" d="M36.68,-691.47C36.47,-795.78 38.12,-1321.65 89.5,-1747 108.07,-1900.71 0.92,-2089 155.75,-2089 155.75,-2089 155.75,-2089 945,-2089 993.36,-2089 1013.38,-2067.14 1030.75,-2022 1063.84,-1936.02 1085.16,-1652.35 1091.58,-1556.2"/>
<polygon fill="#7f849c" stroke="#7f849c" stroke-width="2.6" points="1095.06,-1556.57 1092.23,-1546.36 1088.08,-1556.11 1095.06,-1556.57"/>
<text xml:space="preserve" text-anchor="middle" x="558" y="-2091.7" font-family="Helvetica,sans-Serif" font-size="9.00" fill="#a6adc8">3</text>
</g>
<!-- lib/services -->
<g id="node6" class="node">
<title>lib/services</title>
<path fill="#313244" stroke="#585b70" d="M971.12,-811C971.12,-811 916.88,-811 916.88,-811 910.88,-811 904.88,-805 904.88,-799 904.88,-799 904.88,-787 904.88,-787 904.88,-781 910.88,-775 916.88,-775 916.88,-775 971.12,-775 971.12,-775 977.12,-775 983.12,-781 983.12,-787 983.12,-787 983.12,-799 983.12,-799 983.12,-805 977.12,-811 971.12,-811"/>
<text xml:space="preserve" text-anchor="middle" x="944" y="-789.3" font-family="Helvetica,sans-Serif" font-size="11.00" fill="#cdd6f4">lib/services</text>
</g>
<!-- apps/shell&#45;&gt;lib/services -->
<g id="edge5" class="edge">
<title>apps/shell&#45;&gt;lib/services</title>
<path fill="none" stroke="#7f849c" stroke-width="3" d="M38,-654.65C45.56,-546.79 87.3,0 155.75,0 155.75,0 155.75,0 758.38,0 813.78,0 839.74,-10.11 869.25,-57 907.91,-118.43 865.14,-640.87 887.25,-710 893.47,-729.44 905.73,-748.53 917.18,-763.49"/>
<polygon fill="#7f849c" stroke="#7f849c" stroke-width="3" points="914.22,-765.39 923.21,-770.99 919.67,-761.01 914.22,-765.39"/>
<text xml:space="preserve" text-anchor="middle" x="415.62" y="-2.7" font-family="Helvetica,sans-Serif" font-size="9.00" fill="#a6adc8">4</text>
</g>
<!-- lib/settings -->
<g id="node7" class="node">
<title>lib/settings</title>
<path fill="#313244" stroke="#585b70" d="M1121,-1120C1121,-1120 1068.25,-1120 1068.25,-1120 1062.25,-1120 1056.25,-1114 1056.25,-1108 1056.25,-1108 1056.25,-1096 1056.25,-1096 1056.25,-1090 1062.25,-1084 1068.25,-1084 1068.25,-1084 1121,-1084 1121,-1084 1127,-1084 1133,-1090 1133,-1096 1133,-1096 1133,-1108 1133,-1108 1133,-1114 1127,-1120 1121,-1120"/>
<text xml:space="preserve" text-anchor="middle" x="1094.62" y="-1098.3" font-family="Helvetica,sans-Serif" font-size="11.00" fill="#cdd6f4">lib/settings</text>
</g>
<!-- apps/shell&#45;&gt;lib/settings -->
<g id="edge6" class="edge">
<title>apps/shell&#45;&gt;lib/settings</title>
<path fill="none" stroke="#7f849c" d="M36.6,-691.11C35.61,-839.94 33.32,-1856 155.75,-1856 155.75,-1856 155.75,-1856 758.38,-1856 786.38,-1856 982.38,-1808.13 1000.75,-1787 1011.75,-1774.35 1074.36,-1261.49 1090.05,-1131.64"/>
<polygon fill="#7f849c" stroke="#7f849c" points="1093.52,-1132.15 1091.24,-1121.8 1086.57,-1131.31 1093.52,-1132.15"/>
<text xml:space="preserve" text-anchor="middle" x="558" y="-1858.7" font-family="Helvetica,sans-Serif" font-size="9.00" fill="#a6adc8">1</text>
</g>
<!-- widget/index -->
<g id="node8" class="node">
<title>widget/index</title>
<path fill="#45475a" stroke="#585b70" d="M188,-975C188,-975 125.5,-975 125.5,-975 119.5,-975 113.5,-969 113.5,-963 113.5,-963 113.5,-951 113.5,-951 113.5,-945 119.5,-939 125.5,-939 125.5,-939 188,-939 188,-939 194,-939 200,-945 200,-951 200,-951 200,-963 200,-963 200,-969 194,-975 188,-975"/>
<text xml:space="preserve" text-anchor="middle" x="156.75" y="-953.3" font-family="Helvetica,sans-Serif" font-size="11.00" fill="#cdd6f4">widget/index</text>
</g>
<!-- apps/shell&#45;&gt;widget/index -->
<g id="edge7" class="edge">
<title>apps/shell&#45;&gt;widget/index</title>
<path fill="none" stroke="#7f849c" d="M40.96,-691.47C48.55,-723.38 65.96,-790.54 89.5,-844 102.85,-874.32 122.46,-906.73 136.88,-929.03"/>
<polygon fill="#7f849c" stroke="#7f849c" points="133.87,-930.81 142.27,-937.25 139.72,-926.97 133.87,-930.81"/>
<text xml:space="preserve" text-anchor="middle" x="92.5" y="-859.58" font-family="Helvetica,sans-Serif" font-size="9.00" fill="#a6adc8">1</text>
</g>
<!-- lib/services&#45;&gt;lib/core -->
<g id="edge8" class="edge">
<title>lib/services&#45;&gt;lib/core</title>
<path fill="none" stroke="#7f849c" stroke-width="6" d="M964.97,-811.44C977.65,-824.49 993.08,-843.15 1000.75,-863 1023.06,-920.75 1010.79,-1079.61 1018.75,-1141 1035.61,-1271.14 1069.82,-1423.6 1085.47,-1490.11"/>
<polygon fill="#7f849c" stroke="#7f849c" stroke-width="6" points="1080.29,-1491 1087.71,-1499.52 1090.51,-1488.58 1080.29,-1491"/>
<text xml:space="preserve" text-anchor="middle" x="1024.75" y="-1217.55" font-family="Helvetica,sans-Serif" font-size="9.00" fill="#a6adc8">84</text>
</g>
<!-- lib/services&#45;&gt;lib/settings -->
<g id="edge11" class="edge">
<title>lib/services&#45;&gt;lib/settings</title>
<path fill="none" stroke="#7f849c" d="M963.54,-811.27C982.8,-831.19 1012.59,-864.77 1030.75,-898.75 1061.57,-956.45 1079.84,-1031.59 1088.17,-1072.42"/>
<polygon fill="#7f849c" stroke="#7f849c" points="1084.74,-1073.08 1090.1,-1082.22 1091.6,-1071.73 1084.74,-1073.08"/>
<text xml:space="preserve" text-anchor="middle" x="1024.75" y="-901.45" font-family="Helvetica,sans-Serif" font-size="9.00" fill="#a6adc8">1</text>
</g>
<!-- lib/decorators -->
<g id="node9" class="node">
<title>lib/decorators</title>
<path fill="#313244" stroke="#585b70" d="M1128.5,-811C1128.5,-811 1060.75,-811 1060.75,-811 1054.75,-811 1048.75,-805 1048.75,-799 1048.75,-799 1048.75,-787 1048.75,-787 1048.75,-781 1054.75,-775 1060.75,-775 1060.75,-775 1128.5,-775 1128.5,-775 1134.5,-775 1140.5,-781 1140.5,-787 1140.5,-787 1140.5,-799 1140.5,-799 1140.5,-805 1134.5,-811 1128.5,-811"/>
<text xml:space="preserve" text-anchor="middle" x="1094.62" y="-789.3" font-family="Helvetica,sans-Serif" font-size="11.00" fill="#cdd6f4">lib/decorators</text>
</g>
<!-- lib/services&#45;&gt;lib/decorators -->
<g id="edge9" class="edge">
<title>lib/services&#45;&gt;lib/decorators</title>
<path fill="none" stroke="#7f849c" stroke-width="3" d="M983.27,-793C998.72,-793 1016.9,-793 1034.01,-793"/>
<polygon fill="#7f849c" stroke="#7f849c" stroke-width="3" points="1033.81,-796.5 1043.81,-793 1033.81,-789.5 1033.81,-796.5"/>
<text xml:space="preserve" text-anchor="middle" x="1024.75" y="-795.7" font-family="Helvetica,sans-Serif" font-size="9.00" fill="#a6adc8">4</text>
</g>
<!-- lib/hyprland -->
<g id="node10" class="node">
<title>lib/hyprland</title>
<path fill="#313244" stroke="#585b70" d="M1122.88,-369C1122.88,-369 1066.38,-369 1066.38,-369 1060.38,-369 1054.38,-363 1054.38,-357 1054.38,-357 1054.38,-345 1054.38,-345 1054.38,-339 1060.38,-333 1066.38,-333 1066.38,-333 1122.88,-333 1122.88,-333 1128.88,-333 1134.88,-339 1134.88,-345 1134.88,-345 1134.88,-357 1134.88,-357 1134.88,-363 1128.88,-369 1122.88,-369"/>
<text xml:space="preserve" text-anchor="middle" x="1094.62" y="-347.3" font-family="Helvetica,sans-Serif" font-size="11.00" fill="#cdd6f4">lib/hyprland</text>
</g>
<!-- lib/services&#45;&gt;lib/hyprland -->
<g id="edge10" class="edge">
<title>lib/services&#45;&gt;lib/hyprland</title>
<path fill="none" stroke="#7f849c" stroke-width="3" d="M952.78,-774.94C965.13,-745.42 989.03,-684.76 1000.75,-631 1018.18,-551.04 988.53,-523.8 1018.75,-447.75 1028.9,-422.21 1047.92,-397.77 1064.25,-379.84"/>
<polygon fill="#7f849c" stroke="#7f849c" stroke-width="3" points="1066.76,-382.28 1071.1,-372.61 1061.68,-377.47 1066.76,-382.28"/>
<text xml:space="preserve" text-anchor="middle" x="1024.75" y="-450.45" font-family="Helvetica,sans-Serif" font-size="9.00" fill="#a6adc8">4</text>
</g>
<!-- widget/index&#45;&gt;lib/core -->
<g id="edge42" class="edge">
<title>widget/index&#45;&gt;lib/core</title>
<path fill="none" stroke="#7f849c" stroke-width="2" d="M177.6,-975.3C186.16,-984.5 195.28,-996.36 200,-1009 221.62,-1066.91 205.67,-1504.43 218,-1565 237.48,-1660.68 277.23,-1681.41 360.75,-1732 469.31,-1797.76 541.2,-1740.93 627.5,-1834 678.27,-1888.75 619.71,-1945.37 675.5,-1995 784.2,-2091.7 868.57,-2092.79 1000.75,-2032 1019.36,-2023.44 1022.39,-2015.7 1030.75,-1997 1066.45,-1917.15 1086.03,-1647.21 1091.8,-1555.1"/>
<polygon fill="#7f849c" stroke="#7f849c" stroke-width="2" points="1095.28,-1555.59 1092.39,-1545.39 1088.29,-1555.16 1095.28,-1555.59"/>
<text xml:space="preserve" text-anchor="middle" x="651.5" y="-1974.56" font-family="Helvetica,sans-Serif" font-size="9.00" fill="#a6adc8">2</text>
</g>
<!-- widget/index&#45;&gt;apps/shell -->
<g id="edge41" class="edge">
<title>widget/index&#45;&gt;apps/shell</title>
<path fill="none" stroke="#7f849c" d="M148.03,-938.59C127.79,-890.26 73.02,-759.56 48.68,-701.48"/>
<polygon fill="#7f849c" stroke="#7f849c" points="52.05,-700.46 44.96,-692.59 45.6,-703.17 52.05,-700.46"/>
<text xml:space="preserve" text-anchor="middle" x="92.5" y="-809.18" font-family="Helvetica,sans-Serif" font-size="9.00" fill="#a6adc8">1</text>
</g>
<!-- widget/index&#45;&gt;lib/services -->
<g id="edge43" class="edge">
<title>widget/index&#45;&gt;lib/services</title>
<path fill="none" stroke="#7f849c" stroke-width="5.5" d="M200.37,-951.81C309.21,-938.3 591.36,-901.5 627.5,-879 643.05,-869.32 659.52,-820.94 675.5,-812 710.71,-792.3 820.85,-790.57 888.33,-791.5"/>
<polygon fill="#7f849c" stroke="#7f849c" stroke-width="5.5" points="888.07,-796.31 898.15,-791.68 888.24,-786.69 888.07,-796.31"/>
<text xml:space="preserve" text-anchor="middle" x="558" y="-913.33" font-family="Helvetica,sans-Serif" font-size="9.00" fill="#a6adc8">23</text>
</g>
<!-- widget/index&#45;&gt;lib/settings -->
<g id="edge44" class="edge">
<title>widget/index&#45;&gt;lib/settings</title>
<path fill="none" stroke="#7f849c" d="M176.45,-975.33C210.02,-1006.88 284.16,-1070.47 360.75,-1096 473.84,-1133.69 513.83,-1088.11 627.5,-1124 636.23,-1126.76 636.64,-1131.7 645.5,-1134 650.66,-1135.34 652.17,-1134.03 657.5,-1134 738.28,-1133.56 758.58,-1136.23 839.25,-1132 924.62,-1127.53 946.11,-1126.03 1030.75,-1114 1035.33,-1113.35 1040.08,-1112.59 1044.83,-1111.78"/>
<polygon fill="#7f849c" stroke="#7f849c" points="1045.1,-1115.29 1054.33,-1110.08 1043.87,-1108.4 1045.1,-1115.29"/>
<text xml:space="preserve" text-anchor="middle" x="651.5" y="-1137.3" font-family="Helvetica,sans-Serif" font-size="9.00" fill="#a6adc8">1</text>
</g>
<!-- style/palette -->
<g id="node11" class="node">
<title>style/palette</title>
<path fill="#313244" stroke="#585b70" d="M588.88,-1683C588.88,-1683 527.12,-1683 527.12,-1683 521.12,-1683 515.12,-1677 515.12,-1671 515.12,-1671 515.12,-1659 515.12,-1659 515.12,-1653 521.12,-1647 527.12,-1647 527.12,-1647 588.88,-1647 588.88,-1647 594.88,-1647 600.88,-1653 600.88,-1659 600.88,-1659 600.88,-1671 600.88,-1671 600.88,-1677 594.88,-1683 588.88,-1683"/>
<text xml:space="preserve" text-anchor="middle" x="558" y="-1661.3" font-family="Helvetica,sans-Serif" font-size="11.00" fill="#cdd6f4">style/palette</text>
</g>
<!-- widget/index&#45;&gt;style/palette -->
<g id="edge45" class="edge">
<title>widget/index&#45;&gt;style/palette</title>
<path fill="none" stroke="#7f849c" d="M177.49,-975.35C186.02,-984.55 195.15,-996.41 200,-1009 227.27,-1079.82 209.04,-1274.65 218,-1350 224.89,-1407.91 215.21,-1427.2 242,-1479 271.53,-1536.09 310.92,-1526.91 342.75,-1582.75 357.86,-1609.26 337.28,-1629.5 360.75,-1649 381.73,-1666.43 452.8,-1668.35 503.37,-1667.32"/>
<polygon fill="#7f849c" stroke="#7f849c" points="503.36,-1670.82 513.27,-1667.07 503.18,-1663.82 503.36,-1670.82"/>
<text xml:space="preserve" text-anchor="middle" x="292.38" y="-1585.45" font-family="Helvetica,sans-Serif" font-size="9.00" fill="#a6adc8">1</text>
</g>
<!-- widget/applauncher -->
<g id="node14" class="node">
<title>widget/applauncher</title>
<path fill="#45475a" stroke="#585b70" d="M807.38,-355C807.38,-355 707.38,-355 707.38,-355 701.38,-355 695.38,-349 695.38,-343 695.38,-343 695.38,-331 695.38,-331 695.38,-325 701.38,-319 707.38,-319 707.38,-319 807.38,-319 807.38,-319 813.38,-319 819.38,-325 819.38,-331 819.38,-331 819.38,-343 819.38,-343 819.38,-349 813.38,-355 807.38,-355"/>
<text xml:space="preserve" text-anchor="middle" x="757.38" y="-333.3" font-family="Helvetica,sans-Serif" font-size="11.00" fill="#cdd6f4">widget/applauncher</text>
</g>
<!-- widget/index&#45;&gt;widget/applauncher -->
<g id="edge46" class="edge">
<title>widget/index&#45;&gt;widget/applauncher</title>
<path fill="none" stroke="#7f849c" d="M164.47,-938.81C176.06,-909.73 202.44,-852.64 242,-819 278.83,-787.69 308.43,-812.05 342.75,-778 357.53,-763.34 347.29,-750.64 360.75,-734.75 397.95,-690.83 436.6,-712.52 470.5,-666 489.67,-639.69 471.78,-622.93 488.5,-595 531.48,-523.2 577.46,-535.07 627.5,-468 656.74,-428.81 639.66,-402.26 675.5,-369 678.56,-366.16 681.9,-363.56 685.42,-361.19"/>
<polygon fill="#7f849c" stroke="#7f849c" points="687.03,-364.31 693.82,-356.18 683.44,-358.3 687.03,-364.31"/>
<text xml:space="preserve" text-anchor="middle" x="415.62" y="-737.45" font-family="Helvetica,sans-Serif" font-size="9.00" fill="#a6adc8">1</text>
</g>
<!-- widget/bar -->
<g id="node15" class="node">
<title>widget/bar</title>
<path fill="#45475a" stroke="#585b70" d="M317.62,-769C317.62,-769 267.12,-769 267.12,-769 261.12,-769 255.12,-763 255.12,-757 255.12,-757 255.12,-745 255.12,-745 255.12,-739 261.12,-733 267.12,-733 267.12,-733 317.62,-733 317.62,-733 323.62,-733 329.62,-739 329.62,-745 329.62,-745 329.62,-757 329.62,-757 329.62,-763 323.62,-769 317.62,-769"/>
<text xml:space="preserve" text-anchor="middle" x="292.38" y="-747.3" font-family="Helvetica,sans-Serif" font-size="11.00" fill="#cdd6f4">widget/bar</text>
</g>
<!-- widget/index&#45;&gt;widget/bar -->
<g id="edge47" class="edge">
<title>widget/index&#45;&gt;widget/bar</title>
<path fill="none" stroke="#7f849c" d="M158.27,-938.53C160.34,-901.45 170.35,-817.59 218,-771.75 225.21,-764.82 234.56,-760.17 244.15,-757.06"/>
<polygon fill="#7f849c" stroke="#7f849c" points="244.76,-760.52 253.52,-754.56 242.96,-753.75 244.76,-760.52"/>
<text xml:space="preserve" text-anchor="middle" x="221" y="-774.45" font-family="Helvetica,sans-Serif" font-size="9.00" fill="#a6adc8">1</text>
</g>
<!-- widget/quicksettings -->
<g id="node17" class="node">
<title>widget/quicksettings</title>
<path fill="#45475a" stroke="#585b70" d="M610.62,-975C610.62,-975 505.38,-975 505.38,-975 499.38,-975 493.38,-969 493.38,-963 493.38,-963 493.38,-951 493.38,-951 493.38,-945 499.38,-939 505.38,-939 505.38,-939 610.62,-939 610.62,-939 616.62,-939 622.62,-945 622.62,-951 622.62,-951 622.62,-963 622.62,-963 622.62,-969 616.62,-975 610.62,-975"/>
<text xml:space="preserve" text-anchor="middle" x="558" y="-953.3" font-family="Helvetica,sans-Serif" font-size="11.00" fill="#cdd6f4">widget/quicksettings</text>
</g>
<!-- widget/index&#45;&gt;widget/quicksettings -->
<g id="edge52" class="edge">
<title>widget/index&#45;&gt;widget/quicksettings</title>
<path fill="none" stroke="#7f849c" d="M200.36,-967.94C206.25,-969.15 212.25,-970.22 218,-971 228.58,-972.44 231.33,-971.78 242,-972 343.53,-974.11 369.3,-979.54 470.5,-971 474.14,-970.69 477.85,-970.32 481.6,-969.9"/>
<polygon fill="#7f849c" stroke="#7f849c" points="481.9,-973.39 491.39,-968.68 481.04,-966.44 481.9,-973.39"/>
<text xml:space="preserve" text-anchor="middle" x="292.38" y="-977.85" font-family="Helvetica,sans-Serif" font-size="9.00" fill="#a6adc8">1</text>
</g>
<!-- widget/dock -->
<g id="node18" class="node">
<title>widget/dock</title>
<path fill="#45475a" stroke="#585b70" d="M587,-1389C587,-1389 529,-1389 529,-1389 523,-1389 517,-1383 517,-1377 517,-1377 517,-1365 517,-1365 517,-1359 523,-1353 529,-1353 529,-1353 587,-1353 587,-1353 593,-1353 599,-1359 599,-1365 599,-1365 599,-1377 599,-1377 599,-1383 593,-1389 587,-1389"/>
<text xml:space="preserve" text-anchor="middle" x="558" y="-1367.3" font-family="Helvetica,sans-Serif" font-size="11.00" fill="#cdd6f4">widget/dock</text>
</g>
<!-- widget/index&#45;&gt;widget/dock -->
<g id="edge48" class="edge">
<title>widget/index&#45;&gt;widget/dock</title>
<path fill="none" stroke="#7f849c" d="M159.31,-975.36C163.98,-1019.62 181.53,-1133.59 242,-1202 314.66,-1284.21 437.2,-1333.47 506.06,-1356.09"/>
<polygon fill="#7f849c" stroke="#7f849c" points="504.61,-1359.29 515.2,-1359.02 506.75,-1352.63 504.61,-1359.29"/>
<text xml:space="preserve" text-anchor="middle" x="292.38" y="-1285.56" font-family="Helvetica,sans-Serif" font-size="9.00" fill="#a6adc8">1</text>
</g>
<!-- widget/lockscreen -->
<g id="node19" class="node">
<title>widget/lockscreen</title>
<path fill="#45475a" stroke="#585b70" d="M603.5,-1528C603.5,-1528 512.5,-1528 512.5,-1528 506.5,-1528 500.5,-1522 500.5,-1516 500.5,-1516 500.5,-1504 500.5,-1504 500.5,-1498 506.5,-1492 512.5,-1492 512.5,-1492 603.5,-1492 603.5,-1492 609.5,-1492 615.5,-1498 615.5,-1504 615.5,-1504 615.5,-1516 615.5,-1516 615.5,-1522 609.5,-1528 603.5,-1528"/>
<text xml:space="preserve" text-anchor="middle" x="558" y="-1506.3" font-family="Helvetica,sans-Serif" font-size="11.00" fill="#cdd6f4">widget/lockscreen</text>
</g>
<!-- widget/index&#45;&gt;widget/lockscreen -->
<g id="edge49" class="edge">
<title>widget/index&#45;&gt;widget/lockscreen</title>
<path fill="none" stroke="#7f849c" d="M159.52,-975.3C166.79,-1047.72 196.2,-1313.64 242,-1383 296.23,-1465.14 413.68,-1494.16 488.83,-1504.41"/>
<polygon fill="#7f849c" stroke="#7f849c" points="488.2,-1507.85 498.56,-1505.65 489.08,-1500.91 488.2,-1507.85"/>
<text xml:space="preserve" text-anchor="middle" x="292.38" y="-1466.58" font-family="Helvetica,sans-Serif" font-size="9.00" fill="#a6adc8">1</text>
</g>
<!-- widget/notifications -->
<g id="node20" class="node">
<title>widget/notifications</title>
<path fill="#45475a" stroke="#585b70" d="M608,-1221C608,-1221 508,-1221 508,-1221 502,-1221 496,-1215 496,-1209 496,-1209 496,-1197 496,-1197 496,-1191 502,-1185 508,-1185 508,-1185 608,-1185 608,-1185 614,-1185 620,-1191 620,-1197 620,-1197 620,-1209 620,-1209 620,-1215 614,-1221 608,-1221"/>
<text xml:space="preserve" text-anchor="middle" x="558" y="-1199.3" font-family="Helvetica,sans-Serif" font-size="11.00" fill="#cdd6f4">widget/notifications</text>
</g>
<!-- widget/index&#45;&gt;widget/notifications -->
<g id="edge50" class="edge">
<title>widget/index&#45;&gt;widget/notifications</title>
<path fill="none" stroke="#7f849c" d="M158.85,-975.45C161.94,-1010.01 173.66,-1084.58 218,-1124 291.56,-1189.4 408.76,-1203.56 484.28,-1205.21"/>
<polygon fill="#7f849c" stroke="#7f849c" points="484.01,-1208.7 494.05,-1205.35 484.11,-1201.7 484.01,-1208.7"/>
<text xml:space="preserve" text-anchor="middle" x="292.38" y="-1189.1" font-family="Helvetica,sans-Serif" font-size="9.00" fill="#a6adc8">1</text>
</g>
<!-- widget/osd -->
<g id="node21" class="node">
<title>widget/osd</title>
<path fill="#45475a" stroke="#585b70" d="M584,-1073C584,-1073 532,-1073 532,-1073 526,-1073 520,-1067 520,-1061 520,-1061 520,-1049 520,-1049 520,-1043 526,-1037 532,-1037 532,-1037 584,-1037 584,-1037 590,-1037 596,-1043 596,-1049 596,-1049 596,-1061 596,-1061 596,-1067 590,-1073 584,-1073"/>
<text xml:space="preserve" text-anchor="middle" x="558" y="-1051.3" font-family="Helvetica,sans-Serif" font-size="11.00" fill="#cdd6f4">widget/osd</text>
</g>
<!-- widget/index&#45;&gt;widget/osd -->
<g id="edge51" class="edge">
<title>widget/index&#45;&gt;widget/osd</title>
<path fill="none" stroke="#7f849c" d="M193.84,-975.4C201.67,-978.93 210.01,-982.35 218,-985 228.34,-988.43 231.33,-987.79 242,-990 336.45,-1009.58 446.87,-1032.34 508.69,-1045.06"/>
<polygon fill="#7f849c" stroke="#7f849c" points="507.68,-1048.43 518.18,-1047.01 509.09,-1041.57 507.68,-1048.43"/>
<text xml:space="preserve" text-anchor="middle" x="292.38" y="-1012.61" font-family="Helvetica,sans-Serif" font-size="9.00" fill="#a6adc8">1</text>
</g>
<!-- widget/recording&#45;bar -->
<g id="node22" class="node">
<title>widget/recording&#45;bar</title>
<path fill="#45475a" stroke="#585b70" d="M611,-459C611,-459 505,-459 505,-459 499,-459 493,-453 493,-447 493,-447 493,-435 493,-435 493,-429 499,-423 505,-423 505,-423 611,-423 611,-423 617,-423 623,-429 623,-435 623,-435 623,-447 623,-447 623,-453 617,-459 611,-459"/>
<text xml:space="preserve" text-anchor="middle" x="558" y="-437.3" font-family="Helvetica,sans-Serif" font-size="11.00" fill="#cdd6f4">widget/recording&#45;bar</text>
</g>
<!-- widget/index&#45;&gt;widget/recording&#45;bar -->
<g id="edge53" class="edge">
<title>widget/index&#45;&gt;widget/recording&#45;bar</title>
<path fill="none" stroke="#7f849c" d="M157.44,-938.64C157.5,-891.94 163.11,-766.41 218,-683 225.22,-672.03 230.25,-671.63 242,-665.75 283.98,-644.73 306.68,-664.05 342.75,-634 355.89,-623.06 347.31,-610.58 360.75,-600 400.31,-568.86 436.17,-608.82 470.5,-572 501,-539.29 461.19,-508.42 488.5,-473 490.29,-470.68 492.29,-468.52 494.44,-466.51"/>
<polygon fill="#7f849c" stroke="#7f849c" points="496.51,-469.34 502.24,-460.43 492.21,-463.82 496.51,-469.34"/>
<text xml:space="preserve" text-anchor="middle" x="292.38" y="-668.45" font-family="Helvetica,sans-Serif" font-size="9.00" fill="#a6adc8">1</text>
</g>
<!-- widget/recording&#45;boundary -->
<g id="node23" class="node">
<title>widget/recording&#45;boundary</title>
<path fill="#45475a" stroke="#585b70" d="M827.25,-1790C827.25,-1790 687.5,-1790 687.5,-1790 681.5,-1790 675.5,-1784 675.5,-1778 675.5,-1778 675.5,-1766 675.5,-1766 675.5,-1760 681.5,-1754 687.5,-1754 687.5,-1754 827.25,-1754 827.25,-1754 833.25,-1754 839.25,-1760 839.25,-1766 839.25,-1766 839.25,-1778 839.25,-1778 839.25,-1784 833.25,-1790 827.25,-1790"/>
<text xml:space="preserve" text-anchor="middle" x="757.38" y="-1768.3" font-family="Helvetica,sans-Serif" font-size="11.00" fill="#cdd6f4">widget/recording&#45;boundary</text>
</g>
<!-- widget/index&#45;&gt;widget/recording&#45;boundary -->
<g id="edge54" class="edge">
<title>widget/index&#45;&gt;widget/recording&#45;boundary</title>
<path fill="none" stroke="#7f849c" d="M177.53,-975.33C186.07,-984.53 195.2,-996.39 200,-1009 246.4,-1130.8 161.31,-1491.64 242,-1594 271.63,-1631.58 307.87,-1599.23 342.75,-1632 356.96,-1645.35 345.81,-1659.47 360.75,-1672 406.27,-1710.17 561.95,-1741.25 663.91,-1758.14"/>
<polygon fill="#7f849c" stroke="#7f849c" points="663.21,-1761.57 673.65,-1759.74 664.35,-1754.67 663.21,-1761.57"/>
<text xml:space="preserve" text-anchor="middle" x="415.62" y="-1719.85" font-family="Helvetica,sans-Serif" font-size="9.00" fill="#a6adc8">1</text>
</g>
<!-- widget/region&#45;selector -->
<g id="node24" class="node">
<title>widget/region&#45;selector</title>
<path fill="#45475a" stroke="#585b70" d="M615.5,-225C615.5,-225 500.5,-225 500.5,-225 494.5,-225 488.5,-219 488.5,-213 488.5,-213 488.5,-201 488.5,-201 488.5,-195 494.5,-189 500.5,-189 500.5,-189 615.5,-189 615.5,-189 621.5,-189 627.5,-195 627.5,-201 627.5,-201 627.5,-213 627.5,-213 627.5,-219 621.5,-225 615.5,-225"/>
<text xml:space="preserve" text-anchor="middle" x="558" y="-203.3" font-family="Helvetica,sans-Serif" font-size="11.00" fill="#cdd6f4">widget/region&#45;selector</text>
</g>
<!-- widget/index&#45;&gt;widget/region&#45;selector -->
<g id="edge55" class="edge">
<title>widget/index&#45;&gt;widget/region&#45;selector</title>
<path fill="none" stroke="#7f849c" d="M160.04,-938.8C169.17,-867.95 204.28,-610.97 242,-538.75 279.59,-466.77 430.94,-326.28 488.5,-269 500.76,-256.8 514.84,-243.88 527.04,-233.01"/>
<polygon fill="#7f849c" stroke="#7f849c" points="529.23,-235.74 534.4,-226.49 524.59,-230.5 529.23,-235.74"/>
<text xml:space="preserve" text-anchor="middle" x="292.38" y="-541.45" font-family="Helvetica,sans-Serif" font-size="9.00" fill="#a6adc8">1</text>
</g>
<!-- widget/screenshot&#45;ui -->
<g id="node25" class="node">
<title>widget/screenshot&#45;ui</title>
<path fill="#45475a" stroke="#585b70" d="M611.38,-314C611.38,-314 504.62,-314 504.62,-314 498.62,-314 492.62,-308 492.62,-302 492.62,-302 492.62,-290 492.62,-290 492.62,-284 498.62,-278 504.62,-278 504.62,-278 611.38,-278 611.38,-278 617.38,-278 623.38,-284 623.38,-290 623.38,-290 623.38,-302 623.38,-302 623.38,-308 617.38,-314 611.38,-314"/>
<text xml:space="preserve" text-anchor="middle" x="558" y="-292.3" font-family="Helvetica,sans-Serif" font-size="11.00" fill="#cdd6f4">widget/screenshot&#45;ui</text>
</g>
<!-- widget/index&#45;&gt;widget/screenshot&#45;ui -->
<g id="edge56" class="edge">
<title>widget/index&#45;&gt;widget/screenshot&#45;ui</title>
<path fill="none" stroke="#7f849c" d="M160.23,-938.64C166.72,-892.82 185.95,-770.06 218,-672 226.06,-647.33 222.59,-635.99 242,-618.75 277.1,-587.57 300.45,-607.37 342.75,-587 343.71,-586.54 469.9,-501.89 470.5,-501 492.51,-468.22 474.41,-450.88 488.5,-414 501.02,-381.23 521.98,-346.89 537.42,-323.76"/>
<polygon fill="#7f849c" stroke="#7f849c" points="540.29,-325.76 543.02,-315.52 534.5,-321.82 540.29,-325.76"/>
<text xml:space="preserve" text-anchor="middle" x="292.38" y="-621.45" font-family="Helvetica,sans-Serif" font-size="9.00" fill="#a6adc8">1</text>
</g>
<!-- widget/settings -->
<g id="node26" class="node">
<title>widget/settings</title>
<path fill="#45475a" stroke="#585b70" d="M330.75,-1374C330.75,-1374 254,-1374 254,-1374 248,-1374 242,-1368 242,-1362 242,-1362 242,-1350 242,-1350 242,-1344 248,-1338 254,-1338 254,-1338 330.75,-1338 330.75,-1338 336.75,-1338 342.75,-1344 342.75,-1350 342.75,-1350 342.75,-1362 342.75,-1362 342.75,-1368 336.75,-1374 330.75,-1374"/>
<text xml:space="preserve" text-anchor="middle" x="292.38" y="-1352.3" font-family="Helvetica,sans-Serif" font-size="11.00" fill="#cdd6f4">widget/settings</text>
</g>
<!-- widget/index&#45;&gt;widget/settings -->
<g id="edge57" class="edge">
<title>widget/index&#45;&gt;widget/settings</title>
<path fill="none" stroke="#7f849c" d="M159.38,-975.2C163.96,-1021.13 179.24,-1144.87 218,-1240 231.3,-1272.63 253.71,-1306.27 270.28,-1328.86"/>
<polygon fill="#7f849c" stroke="#7f849c" points="267.28,-1330.7 276.07,-1336.62 272.89,-1326.52 267.28,-1330.7"/>
<text xml:space="preserve" text-anchor="middle" x="221" y="-1252.89" font-family="Helvetica,sans-Serif" font-size="9.00" fill="#a6adc8">1</text>
</g>
<!-- widget/wallpaper -->
<g id="node27" class="node">
<title>widget/wallpaper</title>
<path fill="#45475a" stroke="#585b70" d="M458.5,-637C458.5,-637 372.75,-637 372.75,-637 366.75,-637 360.75,-631 360.75,-625 360.75,-625 360.75,-613 360.75,-613 360.75,-607 366.75,-601 372.75,-601 372.75,-601 458.5,-601 458.5,-601 464.5,-601 470.5,-607 470.5,-613 470.5,-613 470.5,-625 470.5,-625 470.5,-631 464.5,-637 458.5,-637"/>
<text xml:space="preserve" text-anchor="middle" x="415.62" y="-615.3" font-family="Helvetica,sans-Serif" font-size="11.00" fill="#cdd6f4">widget/wallpaper</text>
</g>
<!-- widget/index&#45;&gt;widget/wallpaper -->
<g id="edge58" class="edge">
<title>widget/index&#45;&gt;widget/wallpaper</title>
<path fill="none" stroke="#7f849c" d="M160.59,-938.56C166.84,-901.55 183.99,-816.32 218,-752.75 225.85,-738.07 228.64,-733.93 242,-724 281.07,-694.95 307.99,-715.09 342.75,-681 354.28,-669.7 349.44,-658.97 357.76,-645.89"/>
<polygon fill="#7f849c" stroke="#7f849c" points="360.16,-648.47 363.93,-638.57 354.81,-643.96 360.16,-648.47"/>
<text xml:space="preserve" text-anchor="middle" x="221" y="-755.45" font-family="Helvetica,sans-Serif" font-size="9.00" fill="#a6adc8">1</text>
</g>
<!-- widget/windowswitcher -->
<g id="node28" class="node">
<title>widget/windowswitcher</title>
<path fill="#45475a" stroke="#585b70" d="M817.5,-550C817.5,-550 697.25,-550 697.25,-550 691.25,-550 685.25,-544 685.25,-538 685.25,-538 685.25,-526 685.25,-526 685.25,-520 691.25,-514 697.25,-514 697.25,-514 817.5,-514 817.5,-514 823.5,-514 829.5,-520 829.5,-526 829.5,-526 829.5,-538 829.5,-538 829.5,-544 823.5,-550 817.5,-550"/>
<text xml:space="preserve" text-anchor="middle" x="757.38" y="-528.3" font-family="Helvetica,sans-Serif" font-size="11.00" fill="#cdd6f4">widget/windowswitcher</text>
</g>
<!-- widget/index&#45;&gt;widget/windowswitcher -->
<g id="edge59" class="edge">
<title>widget/index&#45;&gt;widget/windowswitcher</title>
<path fill="none" stroke="#7f849c" d="M173.81,-938.69C185.37,-926.12 201.73,-909.5 218,-897 320.96,-817.87 365.73,-826.72 470.5,-750 569.76,-677.32 571.06,-629.02 675.5,-564 680.63,-560.81 686.13,-557.83 691.76,-555.08"/>
<polygon fill="#7f849c" stroke="#7f849c" points="692.98,-558.37 700.61,-551.01 690.06,-552.01 692.98,-558.37"/>
<text xml:space="preserve" text-anchor="middle" x="415.62" y="-817.27" font-family="Helvetica,sans-Serif" font-size="9.00" fill="#a6adc8">1</text>
</g>
<!-- style/palette&#45;&gt;lib/core -->
<g id="edge12" class="edge">
<title>style/palette&#45;&gt;lib/core</title>
<path fill="none" stroke="#7f849c" stroke-width="2" d="M601.35,-1670.29C688.98,-1679.02 893.44,-1687.73 1030.75,-1601 1049.6,-1589.09 1065.44,-1569.59 1076.5,-1553.2"/>
<polygon fill="#7f849c" stroke="#7f849c" stroke-width="2" points="1079.29,-1555.33 1081.74,-1545.02 1073.4,-1551.55 1079.29,-1555.33"/>
<text xml:space="preserve" text-anchor="middle" x="863.25" y="-1665.68" font-family="Helvetica,sans-Serif" font-size="9.00" fill="#a6adc8">2</text>
</g>
<!-- style/theme -->
<g id="node12" class="node">
<title>style/theme</title>
<path fill="#313244" stroke="#585b70" d="M786.38,-1736C786.38,-1736 728.38,-1736 728.38,-1736 722.38,-1736 716.38,-1730 716.38,-1724 716.38,-1724 716.38,-1712 716.38,-1712 716.38,-1706 722.38,-1700 728.38,-1700 728.38,-1700 786.38,-1700 786.38,-1700 792.38,-1700 798.38,-1706 798.38,-1712 798.38,-1712 798.38,-1724 798.38,-1724 798.38,-1730 792.38,-1736 786.38,-1736"/>
<text xml:space="preserve" text-anchor="middle" x="757.38" y="-1714.3" font-family="Helvetica,sans-Serif" font-size="11.00" fill="#cdd6f4">style/theme</text>
</g>
<!-- style/palette&#45;&gt;style/theme -->
<g id="edge13" class="edge">
<title>style/palette&#45;&gt;style/theme</title>
<path fill="none" stroke="#7f849c" d="M601.34,-1676.37C631.74,-1684.53 672.86,-1695.57 705.12,-1704.24"/>
<polygon fill="#7f849c" stroke="#7f849c" points="704.1,-1707.59 714.66,-1706.8 705.91,-1700.83 704.1,-1707.59"/>
<text xml:space="preserve" text-anchor="middle" x="651.5" y="-1692.61" font-family="Helvetica,sans-Serif" font-size="9.00" fill="#a6adc8">1</text>
</g>
<!-- style/theme&#45;&gt;lib/core -->
<g id="edge14" class="edge">
<title>style/theme&#45;&gt;lib/core</title>
<path fill="none" stroke="#7f849c" d="M798.75,-1704.99C824.02,-1697.1 857.35,-1687.17 887.25,-1679.75 950.38,-1664.09 979.14,-1690.59 1030.75,-1651 1062.29,-1626.81 1079.06,-1582.57 1087.14,-1553.22"/>
<polygon fill="#7f849c" stroke="#7f849c" points="1090.45,-1554.43 1089.54,-1543.87 1083.67,-1552.69 1090.45,-1554.43"/>
<text xml:space="preserve" text-anchor="middle" x="944" y="-1682.45" font-family="Helvetica,sans-Serif" font-size="9.00" fill="#a6adc8">1</text>
</g>
<!-- style/useStyle -->
<g id="node13" class="node">
<title>style/useStyle</title>
<path fill="#313244" stroke="#585b70" d="M979,-1736C979,-1736 909,-1736 909,-1736 903,-1736 897,-1730 897,-1724 897,-1724 897,-1712 897,-1712 897,-1706 903,-1700 909,-1700 909,-1700 979,-1700 979,-1700 985,-1700 991,-1706 991,-1712 991,-1712 991,-1724 991,-1724 991,-1730 985,-1736 979,-1736"/>
<text xml:space="preserve" text-anchor="middle" x="944" y="-1714.3" font-family="Helvetica,sans-Serif" font-size="11.00" fill="#cdd6f4">style/useStyle</text>
</g>
<!-- style/theme&#45;&gt;style/useStyle -->
<g id="edge15" class="edge">
<title>style/theme&#45;&gt;style/useStyle</title>
<path fill="none" stroke="#7f849c" d="M798.44,-1718C823.79,-1718 856.98,-1718 885.17,-1718"/>
<polygon fill="#7f849c" stroke="#7f849c" points="884.99,-1721.5 894.99,-1718 884.99,-1714.5 884.99,-1721.5"/>
<text xml:space="preserve" text-anchor="middle" x="863.25" y="-1720.7" font-family="Helvetica,sans-Serif" font-size="9.00" fill="#a6adc8">1</text>
</g>
<!-- widget/applauncher&#45;&gt;lib/core -->
<g id="edge17" class="edge">
<title>widget/applauncher&#45;&gt;lib/core</title>
<path fill="none" stroke="#7f849c" d="M819.61,-354.17C826.9,-358.14 833.7,-363.02 839.25,-369 851.44,-382.14 875.3,-509.64 887.25,-523 923.98,-564.05 967.52,-528.83 1000.75,-572.75 1040.08,-624.73 1044.41,-1076.88 1048.75,-1129 1060.14,-1265.95 1080.96,-1428.81 1089.65,-1494.44"/>
<polygon fill="#7f849c" stroke="#7f849c" points="1086.14,-1494.58 1090.93,-1504.03 1093.08,-1493.66 1086.14,-1494.58"/>
<text xml:space="preserve" text-anchor="middle" x="944" y="-575.45" font-family="Helvetica,sans-Serif" font-size="9.00" fill="#a6adc8">1</text>
</g>
<!-- widget/applauncher&#45;&gt;apps/shell -->
<g id="edge16" class="edge">
<title>widget/applauncher&#45;&gt;apps/shell</title>
<path fill="none" stroke="#7f849c" d="M695.06,-340.77C656.1,-342.84 604.61,-345 559,-345 155.75,-345 155.75,-345 155.75,-345 153.44,-345 97.04,-404.34 89.5,-420 53.36,-495.11 41.9,-594.42 38.32,-643.27"/>
<polygon fill="#7f849c" stroke="#7f849c" points="34.84,-642.84 37.67,-653.05 41.83,-643.3 34.84,-642.84"/>
<text xml:space="preserve" text-anchor="middle" x="292.38" y="-347.7" font-family="Helvetica,sans-Serif" font-size="9.00" fill="#a6adc8">1</text>
</g>
<!-- widget/applauncher&#45;&gt;lib/services -->
<g id="edge19" class="edge">
<title>widget/applauncher&#45;&gt;lib/services</title>
<path fill="none" stroke="#7f849c" stroke-width="4.5" d="M819.57,-353.06C827.05,-357.21 833.92,-362.43 839.25,-369 869.09,-405.76 848.81,-427.41 857.25,-474 863.58,-508.95 878.11,-596.67 887.25,-631 899.36,-676.49 917.8,-727.65 930.12,-760.08"/>
<polygon fill="#7f849c" stroke="#7f849c" stroke-width="4.5" points="926.31,-761.15 933.58,-769.07 933.66,-758.32 926.31,-761.15"/>
<text xml:space="preserve" text-anchor="middle" x="863.25" y="-544.44" font-family="Helvetica,sans-Serif" font-size="9.00" fill="#a6adc8">11</text>
</g>
<!-- widget/applauncher&#45;&gt;lib/settings -->
<g id="edge20" class="edge">
<title>widget/applauncher&#45;&gt;lib/settings</title>
<path fill="none" stroke="#7f849c" d="M819.76,-348.08C873.91,-360.82 951.64,-386.76 1000.75,-436.75 1025.98,-462.44 1022.93,-476.85 1030.75,-512 1060.52,-645.85 1033.96,-683.68 1048.75,-820 1058.8,-912.62 1078.28,-1021.23 1087.93,-1072.44"/>
<polygon fill="#7f849c" stroke="#7f849c" points="1084.46,-1072.95 1089.76,-1082.12 1091.34,-1071.64 1084.46,-1072.95"/>
<text xml:space="preserve" text-anchor="middle" x="944" y="-439.45" font-family="Helvetica,sans-Serif" font-size="9.00" fill="#a6adc8">1</text>
</g>
<!-- widget/applauncher&#45;&gt;lib/hyprland -->
<g id="edge18" class="edge">
<title>widget/applauncher&#45;&gt;lib/hyprland</title>
<path fill="none" stroke="#7f849c" d="M801.86,-318.57C818.82,-312.31 838.63,-306.11 857.25,-303 933.92,-290.19 955.71,-304.74 1030.75,-325 1034.93,-326.13 1039.2,-327.47 1043.45,-328.93"/>
<polygon fill="#7f849c" stroke="#7f849c" points="1041.9,-332.09 1052.49,-332.26 1044.32,-325.52 1041.9,-332.09"/>
<text xml:space="preserve" text-anchor="middle" x="944" y="-318.74" font-family="Helvetica,sans-Serif" font-size="9.00" fill="#a6adc8">1</text>
</g>
<!-- widget/bar&#45;&gt;lib/core -->
<g id="edge22" class="edge">
<title>widget/bar&#45;&gt;lib/core</title>
<path fill="none" stroke="#7f849c" stroke-width="3.3" d="M322.08,-732.52C333.63,-726.06 347.37,-719.54 360.75,-716 418.1,-700.85 568.39,-711.04 627.5,-706 640.9,-704.86 644.17,-703.79 657.5,-702 751.53,-689.38 778.69,-646.72 869.25,-675 871.37,-675.66 999.64,-764.08 1000.75,-766 1025.07,-808.09 1013.41,-935.68 1018.75,-984 1040.07,-1176.91 1075.28,-1407.24 1088.44,-1491.28"/>
<polygon fill="#7f849c" stroke="#7f849c" stroke-width="3.3" points="1084.95,-1491.6 1089.96,-1500.93 1091.87,-1490.51 1084.95,-1491.6"/>
<text xml:space="preserve" text-anchor="middle" x="757.38" y="-701.61" font-family="Helvetica,sans-Serif" font-size="9.00" fill="#a6adc8">5</text>
</g>
<!-- widget/bar&#45;&gt;apps/shell -->
<g id="edge21" class="edge">
<title>widget/bar&#45;&gt;apps/shell</title>
<path fill="none" stroke="#7f849c" d="M279.6,-732.81C267.71,-716.11 247.75,-692.16 224,-680 180.12,-657.54 122.57,-659.22 82.92,-664.33"/>
<polygon fill="#7f849c" stroke="#7f849c" points="82.63,-660.83 73.23,-665.71 83.62,-667.76 82.63,-660.83"/>
<text xml:space="preserve" text-anchor="middle" x="156.75" y="-672.47" font-family="Helvetica,sans-Serif" font-size="9.00" fill="#a6adc8">1</text>
</g>
<!-- widget/bar&#45;&gt;lib/services -->
<g id="edge24" class="edge">
<title>widget/bar&#45;&gt;lib/services</title>
<path fill="none" stroke="#7f849c" stroke-width="5.2" d="M329.87,-750.42C395.51,-749.66 537.83,-749.28 657.5,-757.75 738.44,-763.48 831.63,-776.13 888.92,-784.62"/>
<polygon fill="#7f849c" stroke="#7f849c" stroke-width="5.2" points="888.02,-789.08 898.59,-786.06 889.37,-780.08 888.02,-789.08"/>
<text xml:space="preserve" text-anchor="middle" x="651.5" y="-760.45" font-family="Helvetica,sans-Serif" font-size="9.00" fill="#a6adc8">19</text>
</g>
<!-- widget/bar&#45;&gt;lib/settings -->
<g id="edge25" class="edge">
<title>widget/bar&#45;&gt;lib/settings</title>
<path fill="none" stroke="#7f849c" stroke-width="3" d="M322.84,-732.51C329.73,-727.56 336.78,-721.92 342.75,-716 352.47,-706.35 348.63,-697.36 360.75,-691 419.15,-660.34 607.3,-727.78 657.5,-685 691.62,-655.92 641.09,-614.48 675.5,-585.75 703.43,-562.43 806.14,-570.65 839.25,-585.75 868.85,-599.24 862.12,-620.35 887.25,-641 932.16,-677.9 963.36,-661.49 1000.75,-706 1047.63,-761.8 1079.3,-985.09 1089.8,-1069.48"/>
<polygon fill="#7f849c" stroke="#7f849c" stroke-width="3" points="1086.31,-1069.75 1090.99,-1079.26 1093.26,-1068.91 1086.31,-1069.75"/>
<text xml:space="preserve" text-anchor="middle" x="757.38" y="-588.45" font-family="Helvetica,sans-Serif" font-size="9.00" fill="#a6adc8">4</text>
</g>
<!-- widget/bar&#45;&gt;lib/hyprland -->
<g id="edge23" class="edge">
<title>widget/bar&#45;&gt;lib/hyprland</title>
<path fill="none" stroke="#7f849c" stroke-width="2" d="M324.36,-732.64C330.96,-727.79 337.52,-722.17 342.75,-716 354.58,-702.05 347.22,-691.3 360.75,-679 399.28,-643.98 432.97,-674.1 470.5,-638 485.43,-623.64 476.57,-611.94 488.5,-595 536.68,-526.58 574.03,-532.37 627.5,-468 653.33,-436.91 641.14,-412.04 675.5,-390.75 705.93,-371.89 935.66,-358.58 1041.06,-353.4"/>
<polygon fill="#7f849c" stroke="#7f849c" stroke-width="2" points="1041.03,-356.9 1050.85,-352.92 1040.7,-349.91 1041.03,-356.9"/>
<text xml:space="preserve" text-anchor="middle" x="757.38" y="-393.45" font-family="Helvetica,sans-Serif" font-size="9.00" fill="#a6adc8">2</text>
</g>
<!-- widget/common -->
<g id="node16" class="node">
<title>widget/common</title>
<path fill="#45475a" stroke="#585b70" d="M797.25,-1067C797.25,-1067 717.5,-1067 717.5,-1067 711.5,-1067 705.5,-1061 705.5,-1055 705.5,-1055 705.5,-1043 705.5,-1043 705.5,-1037 711.5,-1031 717.5,-1031 717.5,-1031 797.25,-1031 797.25,-1031 803.25,-1031 809.25,-1037 809.25,-1043 809.25,-1043 809.25,-1055 809.25,-1055 809.25,-1061 803.25,-1067 797.25,-1067"/>
<text xml:space="preserve" text-anchor="middle" x="757.38" y="-1045.3" font-family="Helvetica,sans-Serif" font-size="11.00" fill="#cdd6f4">widget/common</text>
</g>
<!-- widget/bar&#45;&gt;widget/common -->
<g id="edge26" class="edge">
<title>widget/bar&#45;&gt;widget/common</title>
<path fill="none" stroke="#7f849c" stroke-width="2" d="M315.88,-769.31C328.44,-778.75 344.75,-789.77 360.75,-797 472.52,-847.51 534.59,-787.68 627.5,-867.75 667.67,-902.37 644.31,-934.1 675.5,-977 687.9,-994.05 704.95,-1009.97 720.2,-1022.49"/>
<polygon fill="#7f849c" stroke="#7f849c" stroke-width="2" points="718.01,-1025.22 728.02,-1028.7 722.37,-1019.74 718.01,-1025.22"/>
<text xml:space="preserve" text-anchor="middle" x="558" y="-870.45" font-family="Helvetica,sans-Serif" font-size="9.00" fill="#a6adc8">2</text>
</g>
<!-- widget/bar&#45;&gt;widget/quicksettings -->
<g id="edge27" class="edge">
<title>widget/bar&#45;&gt;widget/quicksettings</title>
<path fill="none" stroke="#7f849c" stroke-width="2" d="M301.03,-769.29C311.48,-792.3 332.22,-831.71 360.75,-856 401.25,-890.49 423.92,-878.06 470.5,-903.75 478.97,-908.42 480.34,-910.79 488.5,-916 496.78,-921.29 505.74,-926.8 514.35,-931.99"/>
<polygon fill="#7f849c" stroke="#7f849c" stroke-width="2" points="512.42,-934.92 522.79,-937.05 516.01,-928.91 512.42,-934.92"/>
<text xml:space="preserve" text-anchor="middle" x="415.62" y="-906.45" font-family="Helvetica,sans-Serif" font-size="9.00" fill="#a6adc8">2</text>
</g>
<!-- widget/common&#45;&gt;lib/core -->
<g id="edge29" class="edge">
<title>widget/common&#45;&gt;lib/core</title>
<path fill="none" stroke="#7f849c" stroke-width="2.6" d="M809.71,-1057.62C820.14,-1060.95 830.56,-1065.58 839.25,-1072 847.11,-1077.8 1026.25,-1358.33 1030.75,-1367 1052.53,-1409.01 1071.8,-1460.34 1083.1,-1492.61"/>
<polygon fill="#7f849c" stroke="#7f849c" stroke-width="2.6" points="1079.72,-1493.56 1086.29,-1501.88 1086.34,-1491.28 1079.72,-1493.56"/>
<text xml:space="preserve" text-anchor="middle" x="944" y="-1318.91" font-family="Helvetica,sans-Serif" font-size="9.00" fill="#a6adc8">3</text>
</g>
<!-- widget/common&#45;&gt;apps/shell -->
<g id="edge28" class="edge">
<title>widget/common&#45;&gt;apps/shell</title>
<path fill="none" stroke="#7f849c" d="M727.68,-1030.73C709.88,-1017.86 688.07,-999.05 675.5,-977 638.72,-912.51 684,-865.17 627.5,-817 534.23,-737.48 440.48,-840.09 360.75,-747 335.28,-717.27 371.81,-597.98 342.75,-571.75 309.51,-541.75 285.61,-561.58 242,-571.75 178.86,-586.48 112.82,-623.56 73.23,-648.52"/>
<polygon fill="#7f849c" stroke="#7f849c" points="71.57,-645.44 65.03,-653.77 75.34,-651.33 71.57,-645.44"/>
<text xml:space="preserve" text-anchor="middle" x="292.38" y="-574.45" font-family="Helvetica,sans-Serif" font-size="9.00" fill="#a6adc8">1</text>
</g>
<!-- widget/common&#45;&gt;lib/services -->
<g id="edge31" class="edge">
<title>widget/common&#45;&gt;lib/services</title>
<path fill="none" stroke="#7f849c" stroke-width="4.2" d="M782.79,-1030.52C799.62,-1017.17 821.97,-998.18 839.25,-979 854.85,-961.69 859.63,-957.23 869.25,-936 883.04,-905.56 872.5,-892.98 887.25,-863 894.18,-848.92 904.31,-835.06 914.05,-823.43"/>
<polygon fill="#7f849c" stroke="#7f849c" stroke-width="4.2" points="916.81,-825.86 920.66,-815.93 911.29,-821 916.81,-825.86"/>
<text xml:space="preserve" text-anchor="middle" x="863.25" y="-960.23" font-family="Helvetica,sans-Serif" font-size="9.00" fill="#a6adc8">9</text>
</g>
<!-- widget/common&#45;&gt;lib/settings -->
<g id="edge32" class="edge">
<title>widget/common&#45;&gt;lib/settings</title>
<path fill="none" stroke="#7f849c" d="M806.03,-1067.45C822.08,-1072.98 840.23,-1078.49 857.25,-1082 921.16,-1095.17 996.5,-1099.7 1044.64,-1101.24"/>
<polygon fill="#7f849c" stroke="#7f849c" points="1044.37,-1104.73 1054.46,-1101.52 1044.57,-1097.74 1044.37,-1104.73"/>
<text xml:space="preserve" text-anchor="middle" x="944" y="-1101.8" font-family="Helvetica,sans-Serif" font-size="9.00" fill="#a6adc8">1</text>
</g>
<!-- widget/common&#45;&gt;lib/hyprland -->
<g id="edge30" class="edge">
<title>widget/common&#45;&gt;lib/hyprland</title>
<path fill="none" stroke="#7f849c" d="M795.89,-1030.68C851.16,-1001.5 953.06,-938.86 1000.75,-853 1012.43,-831.97 1071.12,-485.41 1088.66,-380.72"/>
<polygon fill="#7f849c" stroke="#7f849c" points="1092.1,-381.39 1090.3,-370.95 1085.2,-380.23 1092.1,-381.39"/>
<text xml:space="preserve" text-anchor="middle" x="944" y="-974.34" font-family="Helvetica,sans-Serif" font-size="9.00" fill="#a6adc8">1</text>
</g>
<!-- widget/common&#45;&gt;widget/quicksettings -->
<g id="edge33" class="edge">
<title>widget/common&#45;&gt;widget/quicksettings</title>
<path fill="none" stroke="#7f849c" d="M705.21,-1033.92C694.77,-1029.47 684.3,-1023.89 675.5,-1017 664.65,-1008.51 668.51,-1000.04 657.5,-991.75 650.24,-986.28 642.05,-981.63 633.56,-977.67"/>
<polygon fill="#7f849c" stroke="#7f849c" points="635.08,-974.51 624.51,-973.78 632.31,-980.94 635.08,-974.51"/>
<text xml:space="preserve" text-anchor="middle" x="651.5" y="-994.45" font-family="Helvetica,sans-Serif" font-size="9.00" fill="#a6adc8">1</text>
</g>
<!-- widget/quicksettings&#45;&gt;lib/core -->
<g id="edge72" class="edge">
<title>widget/quicksettings&#45;&gt;lib/core</title>
<path fill="none" stroke="#7f849c" stroke-width="4.5" d="M623.11,-969.23C680.35,-980.77 766.18,-999.62 839.25,-1022 912.76,-1044.52 953.4,-1023.42 1000.75,-1084 1020.88,-1109.76 1012.7,-1197.87 1018.75,-1230 1036.72,-1325.49 1067.67,-1436.03 1083.57,-1490.34"/>
<polygon fill="#7f849c" stroke="#7f849c" stroke-width="4.5" points="1079.73,-1491.24 1086.33,-1499.72 1087.28,-1489.01 1079.73,-1491.24"/>
<text xml:space="preserve" text-anchor="middle" x="863.25" y="-1031.88" font-family="Helvetica,sans-Serif" font-size="9.00" fill="#a6adc8">11</text>
</g>
<!-- widget/quicksettings&#45;&gt;apps/shell -->
<g id="edge71" class="edge">
<title>widget/quicksettings&#45;&gt;apps/shell</title>
<path fill="none" stroke="#7f849c" d="M493.16,-953.66C452.83,-949.15 400.95,-938.75 360.75,-915 291.38,-874.01 282.45,-847.69 242,-778 229.88,-757.12 241.56,-743.32 224,-726.75 203.67,-707.57 131.56,-690.76 82.99,-681.24"/>
<polygon fill="#7f849c" stroke="#7f849c" points="83.77,-677.83 73.29,-679.39 82.45,-684.71 83.77,-677.83"/>
<text xml:space="preserve" text-anchor="middle" x="221" y="-729.45" font-family="Helvetica,sans-Serif" font-size="9.00" fill="#a6adc8">1</text>
</g>
<!-- widget/quicksettings&#45;&gt;lib/services -->
<g id="edge74" class="edge">
<title>widget/quicksettings&#45;&gt;lib/services</title>
<path fill="none" stroke="#7f849c" stroke-width="5.6" d="M599.72,-938.63C609.83,-932.57 619.92,-925.02 627.5,-916 641.89,-898.87 630.31,-885.42 645.5,-869 655.52,-858.16 661.56,-859.61 675.5,-854.75 695.47,-847.8 816.25,-820.82 888.52,-804.91"/>
<polygon fill="#7f849c" stroke="#7f849c" stroke-width="5.6" points="889.52,-809.71 898.23,-802.78 887.41,-800.14 889.52,-809.71"/>
<text xml:space="preserve" text-anchor="middle" x="757.38" y="-857.45" font-family="Helvetica,sans-Serif" font-size="9.00" fill="#a6adc8">24</text>
</g>
<!-- widget/quicksettings&#45;&gt;lib/settings -->
<g id="edge75" class="edge">
<title>widget/quicksettings&#45;&gt;lib/settings</title>
<path fill="none" stroke="#7f849c" stroke-width="3.3" d="M608.33,-938.58C670.83,-918.14 781.03,-891.84 869.25,-922.75 954.41,-952.59 1031.3,-1029.83 1069.05,-1072.53"/>
<polygon fill="#7f849c" stroke="#7f849c" stroke-width="3.3" points="1066.17,-1074.55 1075.37,-1079.82 1071.46,-1069.97 1066.17,-1074.55"/>
<text xml:space="preserve" text-anchor="middle" x="863.25" y="-925.45" font-family="Helvetica,sans-Serif" font-size="9.00" fill="#a6adc8">5</text>
</g>
<!-- widget/quicksettings&#45;&gt;widget/index -->
<g id="edge77" class="edge">
<title>widget/quicksettings&#45;&gt;widget/index</title>
<path fill="none" stroke="#7f849c" d="M493.05,-956.86C429.41,-956.75 328.95,-956.62 242,-956.75 232.12,-956.76 221.58,-956.79 211.43,-956.82"/>
<polygon fill="#7f849c" stroke="#7f849c" points="211.68,-953.32 201.69,-956.85 211.7,-960.32 211.68,-953.32"/>
<text xml:space="preserve" text-anchor="middle" x="292.38" y="-959.45" font-family="Helvetica,sans-Serif" font-size="9.00" fill="#a6adc8">1</text>
</g>
<!-- widget/quicksettings&#45;&gt;lib/hyprland -->
<g id="edge73" class="edge">
<title>widget/quicksettings&#45;&gt;lib/hyprland</title>
<path fill="none" stroke="#7f849c" d="M595.55,-938.58C618.16,-927.71 648.02,-914.31 675.5,-905 746.35,-880.98 766.87,-884.92 839.25,-866 843.76,-864.82 997.63,-823.47 1000.75,-820 1032.38,-784.77 1009.98,-761.53 1018.75,-715 1042.28,-590.18 1073.9,-442.06 1087.25,-380.31"/>
<polygon fill="#7f849c" stroke="#7f849c" points="1090.66,-381.13 1089.35,-370.62 1083.81,-379.65 1090.66,-381.13"/>
<text xml:space="preserve" text-anchor="middle" x="863.25" y="-863.8" font-family="Helvetica,sans-Serif" font-size="9.00" fill="#a6adc8">1</text>
</g>
<!-- widget/quicksettings&#45;&gt;widget/common -->
<g id="edge76" class="edge">
<title>widget/quicksettings&#45;&gt;widget/common</title>
<path fill="none" stroke="#7f849c" stroke-width="5.8" d="M591.56,-975.3C614.61,-987.88 646.46,-1004.49 675.5,-1017 681.18,-1019.45 687.12,-1021.93 693.08,-1024.38"/>
<polygon fill="#7f849c" stroke="#7f849c" stroke-width="5.8" points="691.17,-1029.08 702.34,-1028.12 694.97,-1019.67 691.17,-1029.08"/>
<text xml:space="preserve" text-anchor="middle" x="651.5" y="-1010.89" font-family="Helvetica,sans-Serif" font-size="9.00" fill="#a6adc8">27</text>
</g>
<!-- widget/dock&#45;&gt;lib/core -->
<g id="edge35" class="edge">
<title>widget/dock&#45;&gt;lib/core</title>
<path fill="none" stroke="#7f849c" stroke-width="2" d="M570.66,-1389.34C596.98,-1430.44 659.91,-1526.95 675.5,-1535 692.08,-1543.56 951.53,-1531.29 1053.2,-1526.11"/>
<polygon fill="#7f849c" stroke="#7f849c" stroke-width="2" points="1053.07,-1529.62 1062.88,-1525.62 1052.72,-1522.63 1053.07,-1529.62"/>
<text xml:space="preserve" text-anchor="middle" x="863.25" y="-1537.46" font-family="Helvetica,sans-Serif" font-size="9.00" fill="#a6adc8">2</text>
</g>
<!-- widget/dock&#45;&gt;apps/shell -->
<g id="edge34" class="edge">
<title>widget/dock&#45;&gt;apps/shell</title>
<path fill="none" stroke="#7f849c" d="M542.49,-1389.18C526.43,-1410.37 501.12,-1447.09 488.5,-1483 478.03,-1512.8 494.21,-1603.13 470.5,-1624 393.79,-1691.54 318.75,-1665.5 242,-1598 102.32,-1475.16 49.25,-847.45 38.77,-702.77"/>
<polygon fill="#7f849c" stroke="#7f849c" points="42.27,-702.61 38.07,-692.88 35.29,-703.11 42.27,-702.61"/>
<text xml:space="preserve" text-anchor="middle" x="221" y="-1577.45" font-family="Helvetica,sans-Serif" font-size="9.00" fill="#a6adc8">1</text>
</g>
<!-- widget/dock&#45;&gt;lib/services -->
<g id="edge37" class="edge">
<title>widget/dock&#45;&gt;lib/services</title>
<path fill="none" stroke="#7f849c" stroke-width="2.6" d="M593.5,-1352.71C651.64,-1320.29 769.59,-1247.48 839.25,-1156 919.19,-1051.01 838.64,-985.68 887.25,-863 893.25,-847.85 903.7,-833.36 913.93,-821.54"/>
<polygon fill="#7f849c" stroke="#7f849c" stroke-width="2.6" points="916.31,-824.13 920.48,-814.39 911.15,-819.4 916.31,-824.13"/>
<text xml:space="preserve" text-anchor="middle" x="757.38" y="-1302.5" font-family="Helvetica,sans-Serif" font-size="9.00" fill="#a6adc8">3</text>
</g>
<!-- widget/dock&#45;&gt;lib/settings -->
<g id="edge38" class="edge">
<title>widget/dock&#45;&gt;lib/settings</title>
<path fill="none" stroke="#7f849c" stroke-width="2" d="M599.42,-1380.09C660.1,-1391.85 777.41,-1407.14 869.25,-1374 954.37,-1343.29 975.35,-1321.55 1030.75,-1250 1058.42,-1214.27 1076.23,-1164.55 1085.6,-1132.82"/>
<polygon fill="#7f849c" stroke="#7f849c" stroke-width="2" points="1088.93,-1133.9 1088.27,-1123.33 1082.19,-1132 1088.93,-1133.9"/>
<text xml:space="preserve" text-anchor="middle" x="863.25" y="-1379.79" font-family="Helvetica,sans-Serif" font-size="9.00" fill="#a6adc8">2</text>
</g>
<!-- widget/dock&#45;&gt;lib/hyprland -->
<g id="edge36" class="edge">
<title>widget/dock&#45;&gt;lib/hyprland</title>
<path fill="none" stroke="#7f849c" d="M599.14,-1375.58C659.92,-1380.09 774.98,-1378.78 839.25,-1315 843.9,-1310.38 883.91,-1089.64 887.25,-1084 921.04,-1026.89 961.83,-1040.74 1000.75,-987 1021.32,-958.59 1022.05,-947.98 1030.75,-914 1034.1,-900.9 1078.12,-494.58 1090.44,-380.52"/>
<polygon fill="#7f849c" stroke="#7f849c" points="1093.9,-381.07 1091.5,-370.75 1086.94,-380.32 1093.9,-381.07"/>
<text xml:space="preserve" text-anchor="middle" x="863.25" y="-1233.51" font-family="Helvetica,sans-Serif" font-size="9.00" fill="#a6adc8">1</text>
</g>
<!-- widget/dock&#45;&gt;widget/common -->
<g id="edge39" class="edge">
<title>widget/dock&#45;&gt;widget/common</title>
<path fill="none" stroke="#7f849c" d="M579.29,-1352.85C602.59,-1330.65 639.87,-1290.74 657.5,-1248 671.74,-1213.5 652.89,-1110.7 675.5,-1081 680.65,-1074.23 687.45,-1068.9 694.92,-1064.68"/>
<polygon fill="#7f849c" stroke="#7f849c" points="696.22,-1067.95 703.69,-1060.43 693.17,-1061.65 696.22,-1067.95"/>
<text xml:space="preserve" text-anchor="middle" x="651.5" y="-1273.64" font-family="Helvetica,sans-Serif" font-size="9.00" fill="#a6adc8">1</text>
</g>
<!-- widget/lockscreen&#45;&gt;lib/core -->
<g id="edge61" class="edge">
<title>widget/lockscreen&#45;&gt;lib/core</title>
<path fill="none" stroke="#7f849c" stroke-width="2.6" d="M581.21,-1528.4C597.79,-1540.87 621.6,-1556.26 645.5,-1563 728.38,-1586.37 753.39,-1569.54 839.25,-1563 915.03,-1557.22 1002.42,-1541.9 1052.53,-1532.27"/>
<polygon fill="#7f849c" stroke="#7f849c" stroke-width="2.6" points="1052.92,-1535.76 1062.07,-1530.42 1051.58,-1528.89 1052.92,-1535.76"/>
<text xml:space="preserve" text-anchor="middle" x="863.25" y="-1564.12" font-family="Helvetica,sans-Serif" font-size="9.00" fill="#a6adc8">3</text>
</g>
<!-- widget/lockscreen&#45;&gt;apps/shell -->
<g id="edge60" class="edge">
<title>widget/lockscreen&#45;&gt;apps/shell</title>
<path fill="none" stroke="#7f849c" d="M545.32,-1528.41C530.34,-1552.69 504.42,-1597.14 488.5,-1638 476.84,-1667.93 495.89,-1688.32 470.5,-1708 386.96,-1772.77 317.61,-1715.87 242,-1642 161.28,-1563.14 148.6,-1530.25 113.5,-1423 68.38,-1285.15 43.86,-823.82 38.09,-702.46"/>
<polygon fill="#7f849c" stroke="#7f849c" points="41.6,-702.52 37.63,-692.7 34.6,-702.85 41.6,-702.52"/>
<text xml:space="preserve" text-anchor="middle" x="221" y="-1625.6" font-family="Helvetica,sans-Serif" font-size="9.00" fill="#a6adc8">1</text>
</g>
<!-- widget/lockscreen&#45;&gt;lib/services -->
<g id="edge62" class="edge">
<title>widget/lockscreen&#45;&gt;lib/services</title>
<path fill="none" stroke="#7f849c" stroke-width="4.6" d="M615.9,-1521.86C679.4,-1531.45 780.88,-1535.28 839.25,-1478 860.85,-1456.8 849.21,-1372.18 857.25,-1343 860.84,-1329.95 866.27,-1328.21 869.25,-1315 880.65,-1264.45 866.55,-896.5 887.25,-849 891.54,-839.14 898.43,-830.08 905.92,-822.24"/>
<polygon fill="#7f849c" stroke="#7f849c" stroke-width="4.6" points="908.49,-825.34 913.02,-815.56 902.98,-819.48 908.49,-825.34"/>
<text xml:space="preserve" text-anchor="middle" x="757.38" y="-1530.18" font-family="Helvetica,sans-Serif" font-size="9.00" fill="#a6adc8">12</text>
</g>
<!-- widget/lockscreen&#45;&gt;widget/common -->
<g id="edge63" class="edge">
<title>widget/lockscreen&#45;&gt;widget/common</title>
<path fill="none" stroke="#7f849c" d="M572.37,-1491.87C587.62,-1470.43 612.4,-1433.19 627.5,-1398 647.82,-1350.64 648.55,-1336.75 657.5,-1286 665.45,-1240.96 648.16,-1117.66 675.5,-1081 680.65,-1074.1 687.51,-1068.68 695.08,-1064.44"/>
<polygon fill="#7f849c" stroke="#7f849c" points="696.48,-1067.65 703.97,-1060.15 693.44,-1061.34 696.48,-1067.65"/>
<text xml:space="preserve" text-anchor="middle" x="651.5" y="-1349.74" font-family="Helvetica,sans-Serif" font-size="9.00" fill="#a6adc8">1</text>
</g>
<!-- widget/notifications&#45;&gt;lib/core -->
<g id="edge64" class="edge">
<title>widget/notifications&#45;&gt;lib/core</title>
<path fill="none" stroke="#7f849c" d="M573.48,-1221.17C589.79,-1241.04 617.69,-1273.22 645.5,-1297 776.7,-1409.19 972.92,-1483.6 1055.18,-1511.58"/>
<polygon fill="#7f849c" stroke="#7f849c" points="1053.98,-1514.87 1064.57,-1514.74 1056.21,-1508.23 1053.98,-1514.87"/>
<text xml:space="preserve" text-anchor="middle" x="863.25" y="-1438.01" font-family="Helvetica,sans-Serif" font-size="9.00" fill="#a6adc8">1</text>
</g>
<!-- widget/notifications&#45;&gt;lib/services -->
<g id="edge65" class="edge">
<title>widget/notifications&#45;&gt;lib/services</title>
<path fill="none" stroke="#7f849c" stroke-width="3.6" d="M590.79,-1184.62C602.62,-1177.38 615.96,-1168.72 627.5,-1160 638.96,-1151.35 662.82,-1123.49 675.5,-1116.75 741.72,-1081.54 785.38,-1128.18 839.25,-1076 843.65,-1071.74 867.91,-975.97 869.25,-970 879.83,-922.95 867.6,-907.04 887.25,-863 893.73,-848.47 903.95,-834.36 913.88,-822.66"/>
<polygon fill="#7f849c" stroke="#7f849c" stroke-width="3.6" points="916.25,-825.27 920.32,-815.48 911.03,-820.59 916.25,-825.27"/>
<text xml:space="preserve" text-anchor="middle" x="757.38" y="-1119.45" font-family="Helvetica,sans-Serif" font-size="9.00" fill="#a6adc8">6</text>
</g>
<!-- widget/notifications&#45;&gt;lib/settings -->
<g id="edge66" class="edge">
<title>widget/notifications&#45;&gt;lib/settings</title>
<path fill="none" stroke="#7f849c" d="M572.16,-1221.25C587.32,-1240.55 614.21,-1269.86 645.5,-1282 650.47,-1283.93 653.14,-1285.07 657.5,-1282 676.82,-1268.42 656.18,-1245.58 675.5,-1232 735.04,-1190.15 770.82,-1207.22 839.25,-1232 849.04,-1235.55 847.52,-1243.29 857.25,-1247 869.72,-1251.75 873.91,-1247.78 887.25,-1248 937.69,-1248.84 952.14,-1261.47 1000.75,-1248 1051.91,-1233.83 1076.7,-1169.65 1087.14,-1131.26"/>
<polygon fill="#7f849c" stroke="#7f849c" points="1090.49,-1132.28 1089.56,-1121.72 1083.71,-1130.55 1090.49,-1132.28"/>
<text xml:space="preserve" text-anchor="middle" x="863.25" y="-1252.05" font-family="Helvetica,sans-Serif" font-size="9.00" fill="#a6adc8">1</text>
</g>
<!-- widget/notifications&#45;&gt;widget/common -->
<g id="edge67" class="edge">
<title>widget/notifications&#45;&gt;widget/common</title>
<path fill="none" stroke="#7f849c" stroke-width="2" d="M610.79,-1184.51C616.97,-1180.74 622.76,-1176.27 627.5,-1171 643.93,-1152.74 633.69,-1140.29 645.5,-1118.75 655.81,-1099.96 658.29,-1093.76 675.5,-1081 681.03,-1076.9 687.16,-1073.24 693.5,-1070"/>
<polygon fill="#7f849c" stroke="#7f849c" stroke-width="2" points="694.73,-1073.29 702.31,-1065.89 691.77,-1066.95 694.73,-1073.29"/>
<text xml:space="preserve" text-anchor="middle" x="651.5" y="-1121.45" font-family="Helvetica,sans-Serif" font-size="9.00" fill="#a6adc8">2</text>
</g>
<!-- widget/osd&#45;&gt;lib/core -->
<g id="edge68" class="edge">
<title>widget/osd&#45;&gt;lib/core</title>
<path fill="none" stroke="#7f849c" d="M596.46,-1062.98C607.74,-1067.02 619.29,-1073.05 627.5,-1082 635.41,-1090.63 654.85,-1171.6 657.5,-1183 668.32,-1229.54 641.93,-1254.99 675.5,-1289 737.01,-1351.32 790.7,-1286.05 869.25,-1324.75 956.07,-1367.52 1035.05,-1453.15 1071.84,-1496.91"/>
<polygon fill="#7f849c" stroke="#7f849c" points="1068.99,-1498.96 1078.07,-1504.41 1074.38,-1494.48 1068.99,-1498.96"/>
<text xml:space="preserve" text-anchor="middle" x="863.25" y="-1327.45" font-family="Helvetica,sans-Serif" font-size="9.00" fill="#a6adc8">1</text>
</g>
<!-- widget/osd&#45;&gt;lib/services -->
<g id="edge69" class="edge">
<title>widget/osd&#45;&gt;lib/services</title>
<path fill="none" stroke="#7f849c" stroke-width="3.3" d="M577,-1036.67C593.7,-1020.36 619.78,-996.59 645.5,-980 737.5,-920.66 781.5,-942.45 869.25,-877 889.4,-861.97 908.05,-840.64 921.55,-823.23"/>
<polygon fill="#7f849c" stroke="#7f849c" stroke-width="3.3" points="924.22,-825.5 927.42,-815.4 918.62,-821.3 924.22,-825.5"/>
<text xml:space="preserve" text-anchor="middle" x="757.38" y="-964.27" font-family="Helvetica,sans-Serif" font-size="9.00" fill="#a6adc8">5</text>
</g>
<!-- widget/osd&#45;&gt;widget/common -->
<g id="edge70" class="edge">
<title>widget/osd&#45;&gt;widget/common</title>
<path fill="none" stroke="#7f849c" d="M596.12,-1053.87C623.69,-1053.03 661.94,-1051.87 694.15,-1050.89"/>
<polygon fill="#7f849c" stroke="#7f849c" points="693.86,-1054.4 703.75,-1050.6 693.65,-1047.41 693.86,-1054.4"/>
<text xml:space="preserve" text-anchor="middle" x="651.5" y="-1055.06" font-family="Helvetica,sans-Serif" font-size="9.00" fill="#a6adc8">1</text>
</g>
<!-- widget/recording&#45;bar&#45;&gt;apps/shell -->
<g id="edge78" class="edge">
<title>widget/recording&#45;bar&#45;&gt;apps/shell</title>
<path fill="none" stroke="#7f849c" d="M492.6,-434.4C427.74,-429.92 325.59,-428.86 242,-455 165.56,-478.91 141.62,-490.19 89.5,-551 66.22,-578.17 51.79,-617.18 44.03,-643.72"/>
<polygon fill="#7f849c" stroke="#7f849c" points="40.71,-642.58 41.42,-653.15 47.46,-644.45 40.71,-642.58"/>
<text xml:space="preserve" text-anchor="middle" x="221" y="-465.06" font-family="Helvetica,sans-Serif" font-size="9.00" fill="#a6adc8">1</text>
</g>
<!-- widget/recording&#45;bar&#45;&gt;lib/services -->
<g id="edge80" class="edge">
<title>widget/recording&#45;bar&#45;&gt;lib/services</title>
<path fill="none" stroke="#7f849c" d="M569.79,-459.23C585.29,-484.89 615.33,-532.67 645.5,-570 657.55,-584.91 659.03,-591.19 675.5,-601 740.42,-639.66 777.45,-603.27 839.25,-646.75 861.98,-662.74 903.47,-727.57 926.5,-765.33"/>
<polygon fill="#7f849c" stroke="#7f849c" points="923.24,-766.71 931.42,-773.46 929.23,-763.09 923.24,-766.71"/>
<text xml:space="preserve" text-anchor="middle" x="757.38" y="-649.45" font-family="Helvetica,sans-Serif" font-size="9.00" fill="#a6adc8">1</text>
</g>
<!-- widget/recording&#45;bar&#45;&gt;lib/hyprland -->
<g id="edge79" class="edge">
<title>widget/recording&#45;bar&#45;&gt;lib/hyprland</title>
<path fill="none" stroke="#7f849c" d="M569.15,-422.93C586.66,-393.68 625.51,-336.56 675.5,-310 803.32,-242.11 862.77,-250.32 1000.75,-294 1022.66,-300.94 1044.7,-314.13 1061.8,-326.08"/>
<polygon fill="#7f849c" stroke="#7f849c" points="1059.38,-328.64 1069.54,-331.65 1063.47,-322.96 1059.38,-328.64"/>
<text xml:space="preserve" text-anchor="middle" x="863.25" y="-264.35" font-family="Helvetica,sans-Serif" font-size="9.00" fill="#a6adc8">1</text>
</g>
<!-- lib/utils -->
<g id="node29" class="node">
<title>lib/utils</title>
<path fill="#313244" stroke="#585b70" d="M773.25,-225C773.25,-225 741.5,-225 741.5,-225 735.5,-225 729.5,-219 729.5,-213 729.5,-213 729.5,-201 729.5,-201 729.5,-195 735.5,-189 741.5,-189 741.5,-189 773.25,-189 773.25,-189 779.25,-189 785.25,-195 785.25,-201 785.25,-201 785.25,-213 785.25,-213 785.25,-219 779.25,-225 773.25,-225"/>
<text xml:space="preserve" text-anchor="middle" x="757.38" y="-203.3" font-family="Helvetica,sans-Serif" font-size="11.00" fill="#cdd6f4">lib/utils</text>
</g>
<!-- widget/recording&#45;bar&#45;&gt;lib/utils -->
<g id="edge81" class="edge">
<title>widget/recording&#45;bar&#45;&gt;lib/utils</title>
<path fill="none" stroke="#7f849c" d="M569.72,-422.63C583.23,-399.44 607.17,-358.31 627.5,-323 630.18,-318.34 671.44,-242.52 675.5,-239 687.68,-228.44 703.77,-221.12 718.39,-216.18"/>
<polygon fill="#7f849c" stroke="#7f849c" points="719.22,-219.58 727.75,-213.29 717.16,-212.89 719.22,-219.58"/>
<text xml:space="preserve" text-anchor="middle" x="651.5" y="-292.8" font-family="Helvetica,sans-Serif" font-size="9.00" fill="#a6adc8">1</text>
</g>
<!-- widget/recording&#45;boundary&#45;&gt;lib/core -->
<g id="edge83" class="edge">
<title>widget/recording&#45;boundary&#45;&gt;lib/core</title>
<path fill="none" stroke="#7f849c" d="M772.14,-1790.37C793.38,-1817 836.99,-1865.21 887.25,-1884 934.5,-1901.66 958.71,-1911.88 1000.75,-1884 1056.65,-1846.93 1083,-1632.78 1090.94,-1553.5"/>
<polygon fill="#7f849c" stroke="#7f849c" points="1094.38,-1554.2 1091.87,-1543.91 1087.42,-1553.52 1094.38,-1554.2"/>
<text xml:space="preserve" text-anchor="middle" x="944" y="-1903.99" font-family="Helvetica,sans-Serif" font-size="9.00" fill="#a6adc8">1</text>
</g>
<!-- widget/recording&#45;boundary&#45;&gt;apps/shell -->
<g id="edge82" class="edge">
<title>widget/recording&#45;boundary&#45;&gt;apps/shell</title>
<path fill="none" stroke="#7f849c" d="M675.23,-1772C639.57,-1772 597.21,-1772 559,-1772 155.75,-1772 155.75,-1772 155.75,-1772 44.94,-1772 37.21,-877.5 36.76,-702.49"/>
<polygon fill="#7f849c" stroke="#7f849c" points="40.26,-702.67 36.74,-692.67 33.26,-702.68 40.26,-702.67"/>
<text xml:space="preserve" text-anchor="middle" x="292.38" y="-1774.7" font-family="Helvetica,sans-Serif" font-size="9.00" fill="#a6adc8">1</text>
</g>
<!-- widget/recording&#45;boundary&#45;&gt;lib/services -->
<g id="edge84" class="edge">
<title>widget/recording&#45;boundary&#45;&gt;lib/services</title>
<path fill="none" stroke="#7f849c" stroke-width="2" d="M830.61,-1753.76C833.83,-1751.21 836.75,-1748.31 839.25,-1745 864.91,-1711.1 846.06,-1403.77 857.25,-1362.75 860.26,-1351.72 866.29,-1351.04 869.25,-1340 896.68,-1237.53 850.37,-962.46 887.25,-863 893.03,-847.41 903.72,-832.62 914.21,-820.69"/>
<polygon fill="#7f849c" stroke="#7f849c" stroke-width="2" points="916.55,-823.3 920.8,-813.6 911.43,-818.54 916.55,-823.3"/>
<text xml:space="preserve" text-anchor="middle" x="863.25" y="-1365.45" font-family="Helvetica,sans-Serif" font-size="9.00" fill="#a6adc8">2</text>
</g>
<!-- widget/recording&#45;boundary&#45;&gt;lib/settings -->
<g id="edge85" class="edge">
<title>widget/recording&#45;boundary&#45;&gt;lib/settings</title>
<path fill="none" stroke="#7f849c" d="M839.5,-1773.4C900.95,-1772.61 978.48,-1767.03 1000.75,-1745 1024.15,-1721.86 1014.29,-1630.61 1018.75,-1598 1042.99,-1420.68 1076.56,-1208.42 1088.86,-1131.58"/>
<polygon fill="#7f849c" stroke="#7f849c" points="1092.28,-1132.36 1090.41,-1121.93 1085.37,-1131.25 1092.28,-1132.36"/>
<text xml:space="preserve" text-anchor="middle" x="944" y="-1774.43" font-family="Helvetica,sans-Serif" font-size="9.00" fill="#a6adc8">1</text>
</g>
<!-- widget/region&#45;selector&#45;&gt;apps/shell -->
<g id="edge86" class="edge">
<title>widget/region&#45;selector&#45;&gt;apps/shell</title>
<path fill="none" stroke="#7f849c" d="M488.19,-197C393.49,-187.21 222.39,-184.23 113.5,-269 54.3,-315.08 40.57,-557.78 37.56,-643.22"/>
<polygon fill="#7f849c" stroke="#7f849c" points="34.06,-643.02 37.23,-653.12 41.06,-643.24 34.06,-643.02"/>
<text xml:space="preserve" text-anchor="middle" x="221" y="-218.3" font-family="Helvetica,sans-Serif" font-size="9.00" fill="#a6adc8">1</text>
</g>
<!-- widget/region&#45;selector&#45;&gt;lib/services -->
<g id="edge88" class="edge">
<title>widget/region&#45;selector&#45;&gt;lib/services</title>
<path fill="none" stroke="#7f849c" stroke-width="2" d="M595.26,-188.71C651.36,-163.19 760.9,-124.74 839.25,-168.75 861.6,-181.3 861.79,-193.48 869.25,-218 895.99,-305.89 870.13,-540.75 887.25,-631 896.26,-678.47 916.28,-730.92 929.71,-762.92"/>
<polygon fill="#7f849c" stroke="#7f849c" stroke-width="2" points="926.33,-763.92 933.48,-771.74 932.77,-761.17 926.33,-763.92"/>
<text xml:space="preserve" text-anchor="middle" x="757.38" y="-171.45" font-family="Helvetica,sans-Serif" font-size="9.00" fill="#a6adc8">2</text>
</g>
<!-- widget/region&#45;selector&#45;&gt;lib/hyprland -->
<g id="edge87" class="edge">
<title>widget/region&#45;selector&#45;&gt;lib/hyprland</title>
<path fill="none" stroke="#7f849c" d="M571.49,-188.89C590.46,-163.16 629.28,-117.13 675.5,-99 810.65,-45.99 887.63,-38.02 1000.75,-129 1061.37,-177.76 1082.94,-273.05 1090.2,-321.38"/>
<polygon fill="#7f849c" stroke="#7f849c" points="1086.71,-321.67 1091.54,-331.09 1093.64,-320.71 1086.71,-321.67"/>
<text xml:space="preserve" text-anchor="middle" x="863.25" y="-64.9" font-family="Helvetica,sans-Serif" font-size="9.00" fill="#a6adc8">1</text>
</g>
<!-- widget/region&#45;selector&#45;&gt;lib/utils -->
<g id="edge89" class="edge">
<title>widget/region&#45;selector&#45;&gt;lib/utils</title>
<path fill="none" stroke="#7f849c" d="M627.76,-207C657.91,-207 692.19,-207 717.77,-207"/>
<polygon fill="#7f849c" stroke="#7f849c" points="717.71,-210.5 727.71,-207 717.71,-203.5 717.71,-210.5"/>
<text xml:space="preserve" text-anchor="middle" x="651.5" y="-209.7" font-family="Helvetica,sans-Serif" font-size="9.00" fill="#a6adc8">1</text>
</g>
<!-- widget/screenshot&#45;ui&#45;&gt;lib/core -->
<g id="edge91" class="edge">
<title>widget/screenshot&#45;ui&#45;&gt;lib/core</title>
<path fill="none" stroke="#7f849c" d="M623.87,-291.77C681.42,-289.77 767.28,-291.1 839.25,-310 862.32,-316.06 865.04,-325.3 887.25,-334 936.17,-353.16 966.93,-326.8 1000.75,-367 1041.9,-415.91 1034.95,-944.82 1048.75,-1129 1059.02,-1266.03 1080.46,-1428.85 1089.48,-1494.45"/>
<polygon fill="#7f849c" stroke="#7f849c" points="1085.97,-1494.61 1090.81,-1504.04 1092.91,-1493.65 1085.97,-1494.61"/>
<text xml:space="preserve" text-anchor="middle" x="863.25" y="-327.43" font-family="Helvetica,sans-Serif" font-size="9.00" fill="#a6adc8">1</text>
</g>
<!-- widget/screenshot&#45;ui&#45;&gt;apps/shell -->
<g id="edge90" class="edge">
<title>widget/screenshot&#45;ui&#45;&gt;apps/shell</title>
<path fill="none" stroke="#7f849c" d="M492.39,-278.36C391.98,-255.27 198.67,-228.78 89.5,-331 44.43,-373.2 37.73,-568.13 36.84,-643.31"/>
<polygon fill="#7f849c" stroke="#7f849c" points="33.34,-643.16 36.75,-653.19 40.34,-643.23 33.34,-643.16"/>
<text xml:space="preserve" text-anchor="middle" x="221" y="-269.59" font-family="Helvetica,sans-Serif" font-size="9.00" fill="#a6adc8">1</text>
</g>
<!-- widget/screenshot&#45;ui&#45;&gt;lib/services -->
<g id="edge93" class="edge">
<title>widget/screenshot&#45;ui&#45;&gt;lib/services</title>
<path fill="none" stroke="#7f849c" stroke-width="3" d="M573.53,-314.45C593.8,-338.95 632.88,-381.9 675.5,-406 741.28,-443.19 788.55,-395.72 839.25,-451.75 870.5,-486.29 845.31,-509.98 857.25,-555 877.31,-630.66 911,-716.32 929.62,-761.39"/>
<polygon fill="#7f849c" stroke="#7f849c" stroke-width="3" points="926.27,-762.46 933.35,-770.34 932.73,-759.76 926.27,-762.46"/>
<text xml:space="preserve" text-anchor="middle" x="757.38" y="-454.45" font-family="Helvetica,sans-Serif" font-size="9.00" fill="#a6adc8">4</text>
</g>
<!-- widget/screenshot&#45;ui&#45;&gt;lib/settings -->
<g id="edge94" class="edge">
<title>widget/screenshot&#45;ui&#45;&gt;lib/settings</title>
<path fill="none" stroke="#7f849c" d="M582.91,-277.5C596.92,-265.94 614.38,-250.21 627.5,-234 637.53,-221.62 634.98,-214.96 645.5,-203 656.6,-190.38 659.59,-185.4 675.5,-180 744.42,-156.62 778.03,-140.64 839.25,-180 866.27,-197.37 857.59,-215.82 869.25,-245.75 878.63,-269.81 869.06,-282.66 887.25,-301 924.71,-338.77 964.5,-300.07 1000.75,-339 1022.64,-362.51 1008.39,-378.59 1018.75,-409 1023.12,-421.82 1027.72,-423.8 1030.75,-437 1068.92,-603.08 1031.33,-650.48 1048.75,-820 1058.27,-912.68 1078,-1021.26 1087.81,-1072.45"/>
<polygon fill="#7f849c" stroke="#7f849c" points="1084.35,-1072.98 1089.69,-1082.13 1091.22,-1071.65 1084.35,-1072.98"/>
<text xml:space="preserve" text-anchor="middle" x="863.25" y="-248.45" font-family="Helvetica,sans-Serif" font-size="9.00" fill="#a6adc8">1</text>
</g>
<!-- widget/screenshot&#45;ui&#45;&gt;lib/hyprland -->
<g id="edge92" class="edge">
<title>widget/screenshot&#45;ui&#45;&gt;lib/hyprland</title>
<path fill="none" stroke="#7f849c" stroke-width="2" d="M586.63,-277.58C600.98,-266.59 617.54,-251.4 627.5,-234 647.11,-199.73 616.04,-173.29 645.5,-147 719.96,-80.53 772.54,-103.05 869.25,-127.75 948.5,-147.99 974.8,-156.33 1030.75,-216 1058.82,-245.93 1076.25,-290.63 1085.44,-320.29"/>
<polygon fill="#7f849c" stroke="#7f849c" stroke-width="2" points="1082.07,-321.23 1088.25,-329.84 1088.79,-319.26 1082.07,-321.23"/>
<text xml:space="preserve" text-anchor="middle" x="863.25" y="-130.45" font-family="Helvetica,sans-Serif" font-size="9.00" fill="#a6adc8">2</text>
</g>
<!-- widget/screenshot&#45;ui&#45;&gt;widget/common -->
<g id="edge96" class="edge">
<title>widget/screenshot&#45;ui&#45;&gt;widget/common</title>
<path fill="none" stroke="#7f849c" d="M573.25,-314.37C589.58,-336.59 615.64,-375.77 627.5,-414 658.81,-514.89 632.89,-546.12 645.5,-651 649.41,-683.54 653.68,-691.2 657.5,-723.75 664.13,-780.22 650.06,-928.15 675.5,-979 684.53,-997.05 700.47,-1012.39 715.82,-1024.06"/>
<polygon fill="#7f849c" stroke="#7f849c" points="713.35,-1026.6 723.51,-1029.62 717.45,-1020.93 713.35,-1026.6"/>
<text xml:space="preserve" text-anchor="middle" x="651.5" y="-726.45" font-family="Helvetica,sans-Serif" font-size="9.00" fill="#a6adc8">1</text>
</g>
<!-- widget/screenshot&#45;ui&#45;&gt;lib/utils -->
<g id="edge95" class="edge">
<title>widget/screenshot&#45;ui&#45;&gt;lib/utils</title>
<path fill="none" stroke="#7f849c" d="M594.87,-277.55C617.73,-266.01 648.11,-251.1 675.5,-239 689.45,-232.84 704.98,-226.56 718.68,-221.21"/>
<polygon fill="#7f849c" stroke="#7f849c" points="719.72,-224.56 727.79,-217.69 717.2,-218.03 719.72,-224.56"/>
<text xml:space="preserve" text-anchor="middle" x="651.5" y="-255.03" font-family="Helvetica,sans-Serif" font-size="9.00" fill="#a6adc8">1</text>
</g>
<!-- widget/settings&#45;&gt;lib/core -->
<g id="edge98" class="edge">
<title>widget/settings&#45;&gt;lib/core</title>
<path fill="none" stroke="#7f849c" stroke-width="3.6" d="M338.48,-1374.43C340.02,-1375.85 341.46,-1377.37 342.75,-1379 367.02,-1409.59 337.68,-1433.49 360.75,-1465 449,-1585.54 526.61,-1570.68 675.5,-1583 819.81,-1594.94 860.89,-1601.49 1000.75,-1564 1018.15,-1559.34 1036.52,-1551.99 1052.28,-1544.85"/>
<polygon fill="#7f849c" stroke="#7f849c" stroke-width="3.6" points="1053.44,-1548.18 1061,-1540.76 1050.46,-1541.84 1053.44,-1548.18"/>
<text xml:space="preserve" text-anchor="middle" x="757.38" y="-1595.04" font-family="Helvetica,sans-Serif" font-size="9.00" fill="#a6adc8">6</text>
</g>
<!-- widget/settings&#45;&gt;apps/shell -->
<g id="edge97" class="edge">
<title>widget/settings&#45;&gt;apps/shell</title>
<path fill="none" stroke="#7f849c" d="M273.07,-1337.63C256.63,-1320.23 232.87,-1292.72 218,-1265 110.63,-1064.87 57.03,-791.83 41.58,-702.55"/>
<polygon fill="#7f849c" stroke="#7f849c" points="45.07,-702.2 39.94,-692.93 38.17,-703.37 45.07,-702.2"/>
<text xml:space="preserve" text-anchor="middle" x="156.75" y="-1226.37" font-family="Helvetica,sans-Serif" font-size="9.00" fill="#a6adc8">1</text>
</g>
<!-- widget/settings&#45;&gt;lib/services -->
<g id="edge99" class="edge">
<title>widget/settings&#45;&gt;lib/services</title>
<path fill="none" stroke="#7f849c" stroke-width="3" d="M343.08,-1351.65C422.56,-1341.9 577.4,-1310.87 657.5,-1214 674.7,-1193.2 655.2,-1173.79 675.5,-1156 731.03,-1107.34 785.7,-1178.83 839.25,-1128 865.68,-1102.91 848.13,-1083.28 857.25,-1048 862,-1029.62 865.5,-1025.61 869.25,-1007 883.23,-937.72 856.62,-912.69 887.25,-849 892.17,-838.77 899.73,-829.3 907.72,-821.17"/>
<polygon fill="#7f849c" stroke="#7f849c" stroke-width="3" points="910.04,-823.8 914.95,-814.41 905.26,-818.68 910.04,-823.8"/>
<text xml:space="preserve" text-anchor="middle" x="651.5" y="-1228.7" font-family="Helvetica,sans-Serif" font-size="9.00" fill="#a6adc8">4</text>
</g>
<!-- widget/settings&#45;&gt;lib/settings -->
<g id="edge100" class="edge">
<title>widget/settings&#45;&gt;lib/settings</title>
<path fill="none" stroke="#7f849c" stroke-width="4.2" d="M342.94,-1369.83C463.96,-1402.62 771.76,-1479.89 869.25,-1446 939.63,-1421.53 955.61,-1401.29 1000.75,-1342 1021.5,-1314.74 1018.11,-1302.84 1030.75,-1271 1049.32,-1224.24 1069.35,-1169.59 1081.69,-1135.38"/>
<polygon fill="#7f849c" stroke="#7f849c" stroke-width="4.2" points="1085.11,-1136.74 1085.03,-1126.09 1078.19,-1134.25 1085.11,-1136.74"/>
<text xml:space="preserve" text-anchor="middle" x="757.38" y="-1457.11" font-family="Helvetica,sans-Serif" font-size="9.00" fill="#a6adc8">9</text>
</g>
<!-- widget/settings&#45;&gt;style/palette -->
<g id="edge101" class="edge">
<title>widget/settings&#45;&gt;style/palette</title>
<path fill="none" stroke="#7f849c" d="M302.92,-1374.19C314.17,-1396.42 332.62,-1435.48 342.75,-1471 357.42,-1522.44 327.2,-1548.34 360.75,-1590 370.21,-1601.75 449.43,-1629.65 504.28,-1647.9"/>
<polygon fill="#7f849c" stroke="#7f849c" points="502.87,-1651.12 513.46,-1650.94 505.07,-1644.48 502.87,-1651.12"/>
<text xml:space="preserve" text-anchor="middle" x="415.62" y="-1638.98" font-family="Helvetica,sans-Serif" font-size="9.00" fill="#a6adc8">1</text>
</g>
<!-- widget/settings&#45;&gt;widget/common -->
<g id="edge102" class="edge">
<title>widget/settings&#45;&gt;widget/common</title>
<path fill="none" stroke="#7f849c" d="M300,-1337.91C309.96,-1312.74 330.86,-1266.87 360.75,-1237 456.11,-1141.69 609.13,-1088.22 694.22,-1064.36"/>
<polygon fill="#7f849c" stroke="#7f849c" points="695.08,-1067.75 703.8,-1061.72 693.23,-1061 695.08,-1067.75"/>
<text xml:space="preserve" text-anchor="middle" x="558" y="-1147.51" font-family="Helvetica,sans-Serif" font-size="9.00" fill="#a6adc8">1</text>
</g>
<!-- widget/settings&#45;&gt;widget/quicksettings -->
<g id="edge103" class="edge">
<title>widget/settings&#45;&gt;widget/quicksettings</title>
<path fill="none" stroke="#7f849c" stroke-width="2.6" d="M302.85,-1337.79C314.03,-1315.54 332.41,-1276.46 342.75,-1241 356.65,-1193.34 336.77,-1174.23 360.75,-1130.75 380.67,-1094.63 470.79,-1022.53 521.7,-983.53"/>
<polygon fill="#7f849c" stroke="#7f849c" stroke-width="2.6" points="523.57,-986.51 529.4,-977.66 519.33,-980.94 523.57,-986.51"/>
<text xml:space="preserve" text-anchor="middle" x="415.62" y="-1133.45" font-family="Helvetica,sans-Serif" font-size="9.00" fill="#a6adc8">3</text>
</g>
<!-- widget/wallpaper&#45;&gt;apps/shell -->
<g id="edge104" class="edge">
<title>widget/wallpaper&#45;&gt;apps/shell</title>
<path fill="none" stroke="#7f849c" d="M401.94,-600.7C389.18,-584.01 367.83,-560.42 342.75,-550 327.75,-543.77 144.62,-539.82 113.5,-546.75 70.65,-556.3 50.79,-609.51 42.33,-643.73"/>
<polygon fill="#7f849c" stroke="#7f849c" points="39.02,-642.52 40.22,-653.05 45.85,-644.07 39.02,-642.52"/>
<text xml:space="preserve" text-anchor="middle" x="156.75" y="-549.45" font-family="Helvetica,sans-Serif" font-size="9.00" fill="#a6adc8">1</text>
</g>
<!-- widget/wallpaper&#45;&gt;lib/services -->
<g id="edge105" class="edge">
<title>widget/wallpaper&#45;&gt;lib/services</title>
<path fill="none" stroke="#7f849c" stroke-width="2.6" d="M470.86,-612.06C521.78,-608.05 598.71,-608.55 657.5,-637.75 668.28,-643.11 665.15,-651.85 675.5,-658 739.73,-696.16 773.33,-660.84 839.25,-696 871.08,-712.97 900.41,-742.22 919.7,-764.17"/>
<polygon fill="#7f849c" stroke="#7f849c" stroke-width="2.6" points="916.88,-766.26 926.03,-771.59 922.2,-761.71 916.88,-766.26"/>
<text xml:space="preserve" text-anchor="middle" x="651.5" y="-640.45" font-family="Helvetica,sans-Serif" font-size="9.00" fill="#a6adc8">3</text>
</g>
<!-- widget/wallpaper&#45;&gt;lib/settings -->
<g id="edge106" class="edge">
<title>widget/wallpaper&#45;&gt;lib/settings</title>
<path fill="none" stroke="#7f849c" d="M462.58,-600.52C465.27,-599.35 467.93,-598.17 470.5,-597 563.35,-554.74 576.25,-517.33 675.5,-493.75 746.31,-476.93 766.75,-487.45 839.25,-493.75 852.74,-494.92 856.49,-494.48 869.25,-499 877.88,-502.05 878.73,-505.65 887.25,-509 935.61,-528.01 963.3,-500.98 1000.75,-537 1035.42,-570.35 1021.64,-593.76 1030.75,-641 1045.89,-719.51 1038.46,-740.71 1048.75,-820 1060.74,-912.39 1079.31,-1021.11 1088.34,-1072.39"/>
<polygon fill="#7f849c" stroke="#7f849c" points="1084.86,-1072.85 1090.05,-1082.09 1091.76,-1071.63 1084.86,-1072.85"/>
<text xml:space="preserve" text-anchor="middle" x="757.38" y="-496.45" font-family="Helvetica,sans-Serif" font-size="9.00" fill="#a6adc8">1</text>
</g>
<!-- widget/windowswitcher&#45;&gt;lib/core -->
<g id="edge108" class="edge">
<title>widget/windowswitcher&#45;&gt;lib/core</title>
<path fill="none" stroke="#7f849c" stroke-width="2" d="M812.08,-550.41C870.66,-573.73 961.33,-620.13 1000.75,-694.75 1023.59,-737.97 1013.77,-865.37 1018.75,-914 1041.49,-1136.16 1077.1,-1402.8 1089.33,-1492.69"/>
<polygon fill="#7f849c" stroke="#7f849c" stroke-width="2" points="1085.86,-1493.13 1090.68,-1502.57 1092.79,-1492.18 1085.86,-1493.13"/>
<text xml:space="preserve" text-anchor="middle" x="944" y="-697.45" font-family="Helvetica,sans-Serif" font-size="9.00" fill="#a6adc8">2</text>
</g>
<!-- widget/windowswitcher&#45;&gt;apps/shell -->
<g id="edge107" class="edge">
<title>widget/windowswitcher&#45;&gt;apps/shell</title>
<path fill="none" stroke="#7f849c" d="M684.92,-515.51C681.59,-513.58 678.43,-511.42 675.5,-509 639.02,-478.89 666.64,-440.57 627.5,-414 549.64,-361.15 510.73,-395 416.62,-395 155.75,-395 155.75,-395 155.75,-395 48.55,-395 36.65,-571.86 36.23,-643.45"/>
<polygon fill="#7f849c" stroke="#7f849c" points="32.73,-643.25 36.25,-653.25 39.73,-643.24 32.73,-643.25"/>
<text xml:space="preserve" text-anchor="middle" x="292.38" y="-397.7" font-family="Helvetica,sans-Serif" font-size="9.00" fill="#a6adc8">1</text>
</g>
<!-- widget/windowswitcher&#45;&gt;lib/services -->
<g id="edge110" class="edge">
<title>widget/windowswitcher&#45;&gt;lib/services</title>
<path fill="none" stroke="#7f849c" d="M822.1,-550.45C828.46,-554.18 834.36,-558.65 839.25,-564 858.32,-584.86 846.78,-598.74 857.25,-625 877.61,-676.05 908.13,-732.37 926.74,-765.11"/>
<polygon fill="#7f849c" stroke="#7f849c" points="923.57,-766.63 931.58,-773.56 929.65,-763.15 923.57,-766.63"/>
<text xml:space="preserve" text-anchor="middle" x="863.25" y="-651.33" font-family="Helvetica,sans-Serif" font-size="9.00" fill="#a6adc8">1</text>
</g>
<!-- widget/windowswitcher&#45;&gt;lib/hyprland -->
<g id="edge109" class="edge">
<title>widget/windowswitcher&#45;&gt;lib/hyprland</title>
<path fill="none" stroke="#7f849c" d="M829.76,-522.54C881.93,-512.51 951.82,-492.27 1000.75,-452 1013.35,-441.63 1008.63,-432.8 1018.75,-420 1031.28,-404.16 1047.55,-388.71 1061.72,-376.46"/>
<polygon fill="#7f849c" stroke="#7f849c" points="1063.68,-379.38 1069.06,-370.25 1059.16,-374.03 1063.68,-379.38"/>
<text xml:space="preserve" text-anchor="middle" x="944" y="-510.89" font-family="Helvetica,sans-Serif" font-size="9.00" fill="#a6adc8">1</text>
</g>
</g>
</svg>
